<svg width="32" height="32" viewBox="0 0 32 32" fill="none" xmlns="http://www.w3.org/2000/svg">
<g clip-path="url(#clip0_222_288)">
<path d="M28.5704 0.574188H3.42953C1.85259 0.574188 0.574158 1.85262 0.574158 3.42956V28.5704C0.574158 30.1474 1.85259 31.4258 3.42953 31.4258H28.5704C30.1473 31.4258 31.4257 30.1473 31.4257 28.5704V3.42962C31.4258 1.85256 30.1473 0.574188 28.5704 0.574188Z" fill="#88E059"/>
<path d="M19.3867 5.10246L12.8975 5.10252L12.8976 12.7553L5.24463 12.7554L5.24456 19.2446L12.8975 19.2447L12.8975 26.8975L19.3868 26.8975L19.3868 19.2446L27.0396 19.2447L27.0396 12.7554L19.3868 12.7554L19.3867 5.10246Z" fill="white"/>
<path opacity="0.1" d="M4.40165 28.5704V3.42962C4.40165 1.85268 5.68009 0.574249 7.25702 0.574249H3.42947C1.85253 0.574249 0.574097 1.85268 0.574097 3.42962V28.5704C0.574097 30.1474 1.85253 31.4258 3.42947 31.4258H7.25702C5.68009 31.4258 4.40165 30.1474 4.40165 28.5704Z" fill="#282A28"/>
<path d="M3.42949 32H6.89217C7.20924 32 7.4663 31.7429 7.4663 31.4259C7.4663 31.1088 7.20924 30.8517 6.89217 30.8517H3.42949C2.17162 30.8517 1.14825 29.8284 1.14825 28.5705V3.42962C1.14825 2.17174 2.17156 1.14831 3.42949 1.14831H22.7375C23.0546 1.14831 23.3116 0.891247 23.3116 0.574185C23.3116 0.257123 23.0546 6.10352e-05 22.7375 6.10352e-05H3.42949C1.53843 6.10352e-05 0 1.5385 0 3.42962V28.5704C0 30.4614 1.53843 32 3.42949 32Z" fill="#282A28"/>
<path d="M25.0341 1.14831H28.5704C29.8284 1.14831 30.8517 2.17174 30.8517 3.42955V28.5704C30.8517 29.8283 29.8284 30.8516 28.5704 30.8516H9.18881C8.87175 30.8516 8.61469 31.1087 8.61469 31.4257C8.61469 31.7428 8.87175 31.9999 9.18881 31.9999H28.5705C30.4615 31.9999 32 30.4614 32 28.5704V3.42962C32 1.53856 30.4615 0.00012207 28.5705 0.00012207H25.0342C24.717 0.00012207 24.46 0.257184 24.46 0.574246C24.46 0.891308 24.7169 1.14831 25.0341 1.14831Z" fill="#282A28"/>
<path d="M12.3846 5.93002L12.3844 12.2424L6.07209 12.2425C5.65265 12.2425 5.3127 12.5824 5.31282 13.0017L5.31282 18.9981C5.31282 19.4175 5.65277 19.7575 6.07209 19.7574L12.3846 19.7575L12.3845 26.07C12.3845 26.4894 12.7244 26.8293 13.1438 26.8292L19.1402 26.8292C19.3415 26.8293 19.5347 26.7493 19.6771 26.6069C19.8195 26.4645 19.8995 26.2713 19.8995 26.07L19.8995 19.7575L26.2119 19.7575C26.4133 19.7576 26.6065 19.6775 26.7488 19.5351C26.8912 19.3928 26.9712 19.1996 26.9712 18.9982L26.9713 13.0017C26.9713 12.5824 26.6313 12.2424 26.212 12.2425L19.8997 12.2424L19.8997 5.9299C19.8996 5.51052 19.5597 5.17057 19.1404 5.17062L13.1439 5.17074C12.7246 5.17068 12.3846 5.51063 12.3846 5.93002ZM18.381 13.0017C18.381 13.2032 18.461 13.3963 18.6034 13.5387C18.7458 13.6811 18.9389 13.761 19.1403 13.761L25.4526 13.7609L25.4526 18.2387L19.1402 18.2387C18.9305 18.2387 18.7406 18.3237 18.6032 18.4611C18.4659 18.5984 18.3808 18.7883 18.3809 18.998L18.3809 25.3104L13.9031 25.3104L13.9032 18.9981C13.9032 18.7967 13.8233 18.6036 13.6809 18.4612C13.5385 18.3188 13.3454 18.2388 13.1439 18.2388L6.83149 18.2388L6.83149 13.761L13.1439 13.761C13.5634 13.761 13.9033 13.4211 13.9032 13.0017L13.9032 6.68929L18.381 6.68929L18.381 13.0017Z" fill="#282A28"/>
</g>
<defs>
<clipPath id="clip0_222_288">
<rect width="32" height="32" fill="white"/>
</clipPath>
</defs>
</svg>
