<svg width="64" height="64" viewBox="0 0 64 64" fill="none" xmlns="http://www.w3.org/2000/svg">
<g clip-path="url(#clip0_217_27)">
<mask id="mask0_217_27" style="mask-type:luminance" maskUnits="userSpaceOnUse" x="1" y="0" width="62" height="64">
<path d="M62.8332 0.294117H1.06018V63.9888H62.8332V0.294117Z" fill="white"/>
</mask>
<g mask="url(#mask0_217_27)">
<path d="M25.3395 24.1423C24.1916 23.9254 23.0385 23.7305 21.8958 23.4862C20.5571 23.2134 19.2927 22.6561 18.1881 21.852C17.2272 21.1448 16.5452 20.2377 16.5515 19.0352C16.5625 16.9286 16.6787 14.822 16.786 12.7171C16.8266 11.9209 16.9935 11.1332 17.0528 10.3378C17.1067 9.41963 17.3508 8.52258 17.7697 7.70376C18.1886 6.88494 18.7732 6.1622 19.4864 5.5813C20.3079 4.89249 21.1766 4.18414 22.1443 3.75943C26.1472 2.00233 30.2128 0.467329 34.7107 0.571381C37.7164 0.641116 40.7268 0.567838 43.6915 1.17376C45.9843 1.64241 48.0691 2.56705 49.8029 4.17507C51.3109 5.57306 52.2073 7.25931 52.2667 9.36563C52.3106 10.9075 52.4462 12.4466 52.539 13.9563C54.1206 14.3245 55.6416 14.5878 57.0998 15.0502C58.0786 15.3641 59.0005 15.8339 59.8296 16.4413C61.0841 17.3654 61.5003 18.7763 61.5618 20.2899C61.6751 23.1037 61.7538 25.9195 61.8939 28.7321C62.0788 32.4357 62.3758 36.1349 62.5029 39.8402C62.6477 44.0634 62.7016 48.2911 62.7008 52.5164C62.7008 53.7667 62.3574 55.0149 62.2139 56.2677C62.0767 57.4682 61.2903 58.0442 60.2721 58.4437C57.9602 59.3648 55.5491 60.014 53.0878 60.3796C47.1706 61.2053 41.162 61.1263 35.2686 60.1445C33.9815 59.9383 32.7276 59.5238 31.35 59.1774C31.1484 59.3422 30.8558 59.5698 30.5757 59.812C27.6594 62.3306 24.2481 63.5892 20.4273 63.8394C16.0598 64.1251 11.9139 63.3533 8.05844 61.2451C4.67408 59.3941 2.35941 56.6651 1.55169 52.8351C-0.390177 43.6292 5.50513 34.2373 14.6146 31.9212C15.3243 31.7408 15.9687 31.3068 16.6778 31.1217C17.5693 30.8895 18.5157 30.596 19.4033 30.6824C20.6936 30.8096 21.9566 31.2436 23.2263 31.5657C23.7562 31.6999 24.2734 31.8825 24.8835 32.0697C25.0358 29.4085 25.1836 26.8493 25.3395 24.1423ZM19.0722 60.6846C19.7366 60.6072 20.8232 60.5616 21.8744 60.3449C26.7558 59.338 30.1109 56.6572 31.25 51.6162C31.6915 49.6895 31.7393 47.6934 31.39 45.7475C30.6268 41.4505 28.432 38.1924 24.504 36.2047C23.2524 35.5713 21.9436 35.0436 20.6351 34.5335C19.218 33.991 17.6597 33.941 16.2108 34.3916C10.9884 35.8964 7.26061 39.0314 5.57574 44.3064C5.12745 45.6408 4.83162 47.0216 4.69385 48.4221C4.28642 53.4551 6.10778 56.7316 10.4841 58.8101C13.0698 60.0383 15.8072 60.5934 19.0722 60.6841V60.6846ZM32.1758 13.9309C35.4879 13.6033 38.6312 13.4042 41.7349 12.9408C43.446 12.673 45.1125 12.1695 46.6857 11.4445C48.5668 10.5852 48.7689 9.00932 47.4387 7.41994C47.189 7.07802 46.8782 6.78534 46.5218 6.55678C45.4129 5.9635 44.3198 5.23896 43.126 4.92654C38.8006 3.78749 34.2936 3.51003 29.8616 4.11C27.4253 4.43725 25.0844 5.10335 22.9737 6.41924C21.8061 7.14763 20.7398 7.9987 20.152 9.29016C19.6133 10.4735 19.8774 11.4399 21.0327 12.0307C21.8991 12.4981 22.8365 12.8197 23.8072 12.9828C26.6373 13.3768 29.4861 13.6368 32.1758 13.9309ZM49.1663 14.4568C47.4261 14.9705 45.8818 15.5262 44.2918 15.8763C40.1434 16.7894 35.9236 16.9311 31.694 16.8144C27.515 16.6991 23.3521 16.4611 19.4765 14.5631V19.4619C20.6412 20.2696 21.5252 20.6737 23.2845 20.8755C26.0316 21.1907 28.7868 21.4844 31.5468 21.6307C36.4274 21.8964 41.319 21.3609 46.0265 20.0453C47.1839 19.7221 48.3393 19.338 49.1671 18.7154L49.1663 14.4568ZM58.9834 33.1361C56.7572 34.1333 54.8464 35.1491 52.8281 35.8618C47.9013 37.6016 42.7838 37.6106 37.6568 37.1628C35.6128 36.9841 33.5848 36.6226 31.5894 36.3497C32.1794 37.2968 32.8556 38.2525 33.3923 39.281C33.929 40.3094 34.3304 41.4172 34.8364 42.596C35.3726 42.6767 35.9662 42.8127 36.5661 42.8486C42.1042 43.1904 47.6608 42.6207 53.0146 41.163C54.7652 40.6875 56.4309 39.8932 58.1242 39.2162C58.5517 39.0449 58.9875 38.8189 58.9855 38.2278C58.9792 36.5509 58.9834 34.8745 58.9834 33.1361ZM28.5765 32.5768C29.5962 32.8989 30.6452 33.3324 31.7371 33.5575C36.7635 34.5895 41.9293 34.7551 47.0116 34.0473C50.8064 33.5309 54.2164 31.9964 57.3097 29.7616C57.7034 29.4772 58.2158 29.0752 58.276 28.6667C58.4187 27.7078 58.3216 26.7134 58.3216 25.713C58.1965 25.7328 58.0752 25.773 57.9631 25.8319C55.4119 27.7334 52.4792 28.6412 49.3922 29.179C44.8448 29.9371 40.2181 30.0999 35.6291 29.6636C33.3368 29.4648 31.0592 29.1054 28.9087 28.2066C28.6341 28.0924 28.3521 28.0012 27.9389 27.85C28.1577 29.4632 28.3499 30.8917 28.5765 32.5768ZM33.1688 56.8902C37.6563 58.4692 53.7207 58.5056 59.5924 54.6112C59.464 53.3287 59.3318 52.0123 59.1963 50.6625C51.221 53.6763 43.0909 54.0135 34.8342 53.1413C34.2637 54.4243 33.7163 55.657 33.1688 56.8897V56.8902ZM58.9892 42.8076C51.4657 45.535 43.3975 46.4155 35.4629 45.3752V50.012C35.5917 50.0999 35.6291 50.1471 35.6694 50.1497C36.4659 50.1994 37.2621 50.2463 38.058 50.2894C43.3649 50.5784 48.6852 50.079 53.8462 48.8069C55.6495 48.3827 57.3817 47.6984 58.9884 46.7752L58.9892 42.8076ZM52.7222 17.5093C52.634 17.6446 52.5298 17.7328 52.5415 17.7981C52.8578 19.4509 51.8869 20.4165 50.724 21.3139C49.1935 22.4945 47.3998 23.04 45.5689 23.4595C40.2442 24.6438 34.7659 24.9814 29.3359 24.4597C28.9444 24.4254 28.5471 24.4553 28.1528 24.4553C28.4294 24.8932 28.8395 25.2305 29.3224 25.4176C30.24 25.7717 31.1869 26.0454 32.1519 26.2354C37.8652 27.1596 43.6978 27.0484 49.3721 25.9074C51.4958 25.4936 53.5831 24.8435 55.2906 23.4409C56.0389 22.8127 56.6743 22.0604 57.1679 21.217C57.6825 20.3459 57.4131 19.5882 56.5832 19.03C55.4224 18.2473 54.1047 17.7282 52.7222 17.5093Z" fill="#282A28"/>
</g>
<path d="M21.162 45.502H27.924L27.504 48.988L21.162 49.408V56.884L17.676 56.464L17.214 49.66L9.78 50.122L10.2 45.502H16.962L16.542 38.74L21.162 39.16V45.502Z" fill="#282A28"/>
</g>
<defs>
<clipPath id="clip0_217_27">
<rect width="64" height="64" fill="white"/>
</clipPath>
</defs>
</svg>
