<svg width="64" height="64" viewBox="0 0 64 64" fill="none" xmlns="http://www.w3.org/2000/svg">
<g clip-path="url(#clip0_219_45)">
<path d="M32 62.9788C28.2411 62.9788 24.6672 61.5615 22.1949 59.0903L4.91062 41.8073C2.43862 39.3344 1.02124 35.7601 1.02124 32C1.02124 28.2398 2.43862 24.6654 4.90999 22.1931L22.1929 4.91026C24.6655 2.43851 28.2399 1.02126 32 1.02126C35.7601 1.02126 39.3345 2.43851 41.8067 4.90988L58.8971 22.0013C58.9532 22.0574 59.0181 22.1225 59.088 22.1969C61.5612 24.6669 62.9786 28.2408 62.9786 31.9999C62.9786 35.76 61.5612 39.3343 59.0899 41.8066L41.8071 59.0898C39.3342 61.5615 35.7599 62.9788 32 62.9788Z" fill="#03AED2"/>
<path d="M41.4498 11.8637L22.5501 11.8636C17.8613 14.068 14.0676 17.8615 11.8636 22.5502V41.4499C14.084 46.1727 17.9169 49.9875 22.6529 52.1842L41.4495 52.1364C46.1383 49.932 49.932 46.1384 52.136 41.4497L52.1361 22.5505C49.9321 17.8617 46.1385 14.068 41.4498 11.8637ZM32 42.9576C25.958 42.9576 21.0424 38.042 21.0424 32C21.0424 25.958 25.958 21.0424 32 21.0424C38.042 21.0424 42.9576 25.958 42.9576 32C42.9576 38.042 38.042 42.9576 32 42.9576Z" fill="#6BA3FF"/>
<path d="M21.6185 19.0733C22.3705 19.0733 22.9801 18.4636 22.9801 17.7116C22.9801 16.9596 22.3705 16.35 21.6185 16.35C20.8665 16.35 20.2568 16.9596 20.2568 17.7116C20.2568 18.4636 20.8665 19.0733 21.6185 19.0733Z" fill="#FFAD66"/>
<path d="M17.7117 22.98C18.4637 22.98 19.0733 22.3704 19.0733 21.6184C19.0733 20.8664 18.4637 20.2568 17.7117 20.2568C16.9597 20.2568 16.3501 20.8664 16.3501 21.6184C16.3501 22.3704 16.9597 22.98 17.7117 22.98Z" fill="#FFAD66"/>
<path d="M17.7117 43.7433C18.4637 43.7433 19.0733 43.1336 19.0733 42.3816C19.0733 41.6296 18.4637 41.02 17.7117 41.02C16.9597 41.02 16.3501 41.6296 16.3501 42.3816C16.3501 43.1336 16.9597 43.7433 17.7117 43.7433Z" fill="#FFAD66"/>
<path d="M21.6185 47.6501C22.3705 47.6501 22.9802 47.0405 22.9802 46.2884C22.9802 45.5363 22.3705 44.9266 21.6185 44.9266C20.8664 44.9266 20.2567 45.5363 20.2567 46.2884C20.2567 47.0405 20.8664 47.6501 21.6185 47.6501Z" fill="#FFAD66"/>
<path d="M42.3816 47.7958C43.2141 47.7958 43.889 47.1209 43.889 46.2884C43.889 45.4559 43.2141 44.781 42.3816 44.781C41.5491 44.781 40.8743 45.4559 40.8743 46.2884C40.8743 47.1209 41.5491 47.7958 42.3816 47.7958Z" fill="#FFAD66"/>
<path d="M46.2884 43.7433C47.0404 43.7433 47.65 43.1336 47.65 42.3816C47.65 41.6296 47.0404 41.02 46.2884 41.02C45.5364 41.02 44.9268 41.6296 44.9268 42.3816C44.9268 43.1336 45.5364 43.7433 46.2884 43.7433Z" fill="#FFAD66"/>
<path d="M46.2884 22.98C47.0404 22.98 47.65 22.3704 47.65 21.6184C47.65 20.8664 47.0404 20.2568 46.2884 20.2568C45.5364 20.2568 44.9268 20.8664 44.9268 21.6184C44.9268 22.3704 45.5364 22.98 46.2884 22.98Z" fill="#FFAD66"/>
<path d="M42.3816 19.0733C43.1336 19.0733 43.7433 18.4636 43.7433 17.7116C43.7433 16.9596 43.1336 16.35 42.3816 16.35C41.6296 16.35 41.02 16.9596 41.02 17.7116C41.02 18.4636 41.6296 19.0733 42.3816 19.0733Z" fill="#FFAD66"/>
<path d="M26.6381 17.9424C28.3037 17.3065 30.1109 16.9574 32 16.9574C33.8892 16.9574 35.6964 17.3065 37.362 17.9423V14.3985L41.4501 11.8633C41.4501 9.56625 39.9978 7.40763 37.7453 6.01388L35.9047 6.479V5.11738C34.7145 4.67588 33.3924 4.42563 32.0002 4.42563C30.6076 4.42563 29.2852 4.676 28.0949 5.11763V6.47938L26.2543 6.0145C24.002 7.40813 22.55 9.5665 22.55 11.8633L26.6381 14.3985V17.9424Z" fill="#68D2E8"/>
<path d="M26.638 46.0576C28.3037 46.6935 30.1109 47.0426 32 47.0426C33.8892 47.0426 35.6964 46.6935 37.362 46.0578V49.6015L41.45 52.1368C41.45 54.4338 39.9978 56.5924 37.7453 57.9861L35.9047 57.521V58.8828C34.7145 59.3243 33.3924 59.5745 32.0002 59.5745C30.6075 59.5745 29.2852 59.3241 28.0949 58.8825V57.5208L26.2543 57.9859C24.0022 56.592 22.5502 54.4336 22.5502 52.1369L26.6382 49.6016L26.638 46.0576Z" fill="#68D2E8"/>
<path d="M46.0576 26.638C46.6935 28.3036 47.0425 30.1109 47.0425 32C47.0425 33.8891 46.6935 35.6964 46.0577 37.362H49.6012L52.1366 41.45C54.4336 41.45 56.5922 39.9978 57.986 37.7453L57.5207 35.9046H58.8825C59.3241 34.7145 59.5744 33.3924 59.5744 32.0001C59.5744 30.6075 59.324 29.2851 58.8824 28.095H57.5206L57.9856 26.2542C56.5919 24.0021 54.4335 22.5501 52.1367 22.5501L49.6014 26.6381L46.0576 26.638Z" fill="#68D2E8"/>
<path d="M17.9424 26.638C17.3065 28.3036 16.9574 30.1109 16.9574 32C16.9574 33.8891 17.3065 35.6964 17.9423 37.362H14.3985L11.8632 41.4499C9.56616 41.4499 7.40754 39.9976 6.01379 37.7451L6.47904 35.9045H5.11741C4.67579 34.7145 4.42554 33.3924 4.42554 32.0001C4.42554 30.6075 4.67591 29.2851 5.11754 28.095H6.47929L6.01429 26.2542C7.40804 24.0021 9.56641 22.5501 11.8632 22.5501L14.3984 26.6381L17.9424 26.638Z" fill="#68D2E8"/>
<path d="M59.8211 21.4855C59.7474 21.4074 59.679 21.3388 59.6195 21.2791L42.5286 4.18762C39.8668 1.52637 36.029 0 32 0C27.971 0 24.1332 1.5265 21.4706 4.188L4.18775 21.4711C1.52637 24.1332 0 27.971 0 32C0 36.0287 1.52662 39.8665 4.1885 42.5295L21.473 59.8128C24.1354 62.474 27.9724 64 32 64C36.0287 64 39.8664 62.4735 42.5294 59.812L59.8124 42.5288C62.4736 39.8664 64 36.0287 64 32C64 27.976 62.4769 24.1448 59.8211 21.4855ZM58.3679 41.0845L41.0853 58.3675C38.8025 60.649 35.4913 61.9575 32 61.9575C28.5099 61.9575 25.1992 60.6491 22.917 58.3683L5.63287 41.0854C3.35113 38.8026 2.0425 35.4913 2.0425 32C2.0425 28.5085 3.35087 25.1974 5.63212 22.9154L22.9149 5.6325C25.1973 3.351 28.5086 2.0425 32 2.0425C35.4915 2.0425 38.8026 3.35088 41.0845 5.63175L58.175 22.7232C58.2246 22.7726 58.282 22.83 58.3438 22.8959C58.3512 22.9039 58.3588 22.9115 58.3665 22.9193C60.6488 25.1986 61.9576 28.5083 61.9576 31.9998C61.9575 35.4913 60.6491 38.8025 58.3679 41.0845ZM21.622 20.0936C22.1076 20.0936 22.5975 19.946 23.0196 19.6394C24.0827 18.867 24.3191 17.3739 23.5467 16.3111C22.7745 15.2481 21.2813 15.0118 20.2185 15.784C19.1554 16.5564 18.9189 18.0495 19.6912 19.1122C20.1569 19.7532 20.8845 20.0936 21.622 20.0936ZM21.419 17.4365C21.4794 17.3928 21.5494 17.3715 21.6186 17.3715C21.7239 17.3715 21.8279 17.4201 21.8944 17.5116C22.0046 17.6635 21.9709 17.8767 21.8191 17.987C21.6671 18.0972 21.4539 18.0636 21.3436 17.9118C21.2334 17.76 21.2673 17.5468 21.419 17.4365ZM19.6397 23.0195C20.4119 21.9565 20.1753 20.4635 19.1124 19.6914C18.0494 18.919 16.5564 19.1554 15.7841 20.2185C15.0118 21.2816 15.2481 22.7745 16.3114 23.547C16.7334 23.8535 17.223 24.001 17.7086 24.001C18.4461 24.001 19.174 23.6605 19.6397 23.0195ZM17.9872 21.819C17.8765 21.9709 17.6631 22.0044 17.5117 21.8945C17.3599 21.7841 17.3261 21.5709 17.4365 21.419C17.503 21.3275 17.607 21.2789 17.7122 21.2789C17.7815 21.2789 17.8514 21.3 17.9119 21.3439C18.0636 21.454 18.0974 21.6673 17.9872 21.819ZM19.6397 40.9803C18.8675 39.9171 17.3744 39.6809 16.3114 40.4531C15.2482 41.2255 15.0119 42.7186 15.7843 43.7814C16.25 44.4224 16.9776 44.7627 17.7153 44.7627C18.2008 44.7627 18.6906 44.6151 19.1126 44.3086C20.1753 43.5366 20.4117 42.0435 19.6397 40.9803ZM17.912 42.6562C17.7596 42.7665 17.5465 42.7325 17.4365 42.581C17.3263 42.4291 17.36 42.2159 17.5117 42.1056C17.5721 42.0619 17.6421 42.0406 17.7115 42.0406C17.8168 42.0406 17.9206 42.0893 17.9871 42.1806C18.0974 42.3328 18.0636 42.546 17.912 42.6562ZM23.0198 44.3602C22.5048 43.986 21.8753 43.8351 21.2463 43.9345C20.6178 44.0341 20.0655 44.3725 19.6914 44.8874C19.3171 45.4022 19.166 46.0321 19.2658 46.661C19.3653 47.2894 19.7037 47.8418 20.2186 48.2158C20.6301 48.5148 21.115 48.6714 21.6141 48.6714C21.7395 48.6714 21.8659 48.6616 21.992 48.6414C22.6205 48.5419 23.1729 48.2034 23.5469 47.6886C23.9211 47.1738 24.0723 46.544 23.9726 45.9152C23.8731 45.2866 23.5348 44.7345 23.0198 44.3602ZM21.8944 46.4881C21.784 46.6395 21.5709 46.6739 21.419 46.5635C21.3198 46.4914 21.2911 46.3933 21.2829 46.3413C21.2746 46.2893 21.2716 46.1872 21.3436 46.0882C21.4102 45.9966 21.5142 45.9479 21.6195 45.9479C21.689 45.9479 21.7587 45.9691 21.8191 46.0129C21.9184 46.0849 21.9469 46.183 21.9551 46.235C21.9634 46.287 21.9664 46.389 21.8944 46.4881ZM42.7766 43.7906C42.1094 43.6854 41.4412 43.8454 40.8947 44.2425C40.3482 44.6395 39.9892 45.2256 39.8834 45.8926C39.7779 46.5597 39.9381 47.2281 40.3353 47.7745C40.7323 48.321 41.3182 48.68 41.9854 48.7859C42.1194 48.807 42.2534 48.8175 42.3864 48.8175C42.916 48.8175 43.4305 48.6512 43.8672 48.334C44.4137 47.937 44.7727 47.351 44.8786 46.6839C44.9841 46.0168 44.8239 45.3484 44.4269 44.802C44.0299 44.2556 43.4438 43.8963 42.7766 43.7906ZM42.8613 46.3641C42.8494 46.4384 42.8085 46.5784 42.6668 46.6814C42.525 46.7844 42.3794 46.7796 42.305 46.7682C42.2308 46.7564 42.0908 46.7155 41.9878 46.5737C41.8848 46.432 41.8891 46.2863 41.9009 46.212C41.9128 46.1378 41.9536 45.9977 42.0954 45.8947C42.1979 45.8202 42.3025 45.8019 42.3806 45.8019C42.4106 45.8019 42.4366 45.8048 42.4572 45.8079C42.5315 45.8198 42.6715 45.8606 42.7745 46.0024C42.8773 46.1441 42.8729 46.2899 42.8613 46.3641ZM47.6889 40.4531C46.6259 39.6809 45.1329 39.917 44.3604 40.9804C43.5882 42.0435 43.8249 43.5364 44.8877 44.3086C45.3097 44.6151 45.7994 44.7627 46.2851 44.7627C47.0226 44.7627 47.7506 44.4224 48.2161 43.7814C48.9884 42.7186 48.7517 41.2255 47.6889 40.4531ZM46.5635 42.581C46.4531 42.7324 46.24 42.7666 46.0881 42.6564C45.9362 42.546 45.9025 42.3327 46.0126 42.1809C46.123 42.029 46.336 41.9954 46.4881 42.1056C46.6401 42.2159 46.6739 42.4291 46.5635 42.581ZM44.3602 23.0196C44.826 23.6606 45.5537 24.001 46.2912 24.001C46.7769 24.001 47.2666 23.8535 47.6886 23.547C48.7518 22.7746 48.9882 21.2814 48.2159 20.2185C47.4435 19.1555 45.9503 18.9191 44.8876 19.6914C43.8248 20.4634 43.5882 21.9565 44.3602 23.0196ZM46.0881 21.3436C46.1485 21.2999 46.2185 21.2786 46.2878 21.2786C46.393 21.2786 46.497 21.3273 46.5635 21.4188C46.6737 21.5706 46.6401 21.784 46.4883 21.8943C46.3359 22.0045 46.1229 21.9705 46.0129 21.819C45.9026 21.6673 45.9364 21.454 46.0881 21.3436ZM40.9803 19.6395C41.3918 19.9385 41.8766 20.0952 42.3759 20.0952C42.5011 20.0952 42.6275 20.0855 42.7536 20.0653C43.3824 19.9658 43.9346 19.6274 44.3088 19.1124C44.683 18.5975 44.8341 17.9677 44.7344 17.3391C44.6349 16.7104 44.2964 16.1581 43.7815 15.7841C42.7185 15.0119 41.2255 15.2481 40.4533 16.3113C40.079 16.8261 39.9279 17.4559 40.0275 18.0845C40.127 18.7132 40.4653 19.2654 40.9803 19.6395ZM42.1056 17.5117C42.1721 17.4202 42.2761 17.3716 42.3814 17.3716C42.4507 17.3716 42.5205 17.3927 42.581 17.4366C42.7329 17.547 42.7666 17.7601 42.6564 17.912C42.546 18.0639 42.3327 18.0974 42.1809 17.9872C42.0291 17.8767 41.9953 17.6636 42.1056 17.5117ZM31.1751 51.3498L30.4112 53.2181C30.2495 53.6136 29.8681 53.8531 29.4655 53.8531C29.3369 53.8531 29.206 53.8286 29.0794 53.7769C28.5572 53.5634 28.3071 52.9671 28.5205 52.445L29.2844 50.5766C29.4979 50.0546 30.0937 49.8045 30.6162 50.0177C31.1385 50.2314 31.3886 50.8278 31.1751 51.3498ZM50.0177 30.6164C49.8044 30.0942 50.0545 29.4981 50.5766 29.2845L52.4448 28.5208C52.9674 28.3074 53.5631 28.5576 53.7766 29.0796C53.99 29.6017 53.7399 30.198 53.2178 30.4116L51.3496 31.1752C51.223 31.227 51.0921 31.2515 50.9635 31.2515C50.5611 31.2514 50.1796 31.0117 50.0177 30.6164ZM59.4389 37.1954C60.1707 35.6534 60.5957 33.8754 60.5957 32C60.5957 30.1224 60.1697 28.3426 59.4364 26.7992C59.4325 26.7892 59.4298 26.7792 59.4258 26.7691C59.4079 26.7259 59.3866 26.685 59.3639 26.6455C57.9735 23.8284 55.5431 21.8405 52.7914 21.5649C50.5456 17.0989 46.9013 13.4541 42.435 11.2083C42.1596 8.45837 40.174 6.02938 37.36 4.6385C37.3189 4.6145 37.2764 4.59225 37.231 4.5735C37.2192 4.56875 37.2072 4.56537 37.1955 4.561C35.6536 3.82925 33.8756 3.40425 32 3.40425C30.1222 3.40425 28.3424 3.83037 26.7991 4.56375C26.7891 4.56762 26.7792 4.57025 26.7691 4.57425C26.7256 4.59213 26.6849 4.61338 26.6454 4.63625C23.8282 6.0265 21.8405 8.45687 21.5649 11.2086C17.0986 13.4544 13.4541 17.0988 11.2085 21.565C8.45825 21.8403 6.029 23.8261 4.63825 26.6406C4.61425 26.6816 4.59213 26.7239 4.57363 26.7689C4.56888 26.7806 4.5655 26.7923 4.56125 26.804C3.8295 28.3463 3.40438 30.1243 3.40438 32C3.40438 33.8776 3.83037 35.6574 4.56375 37.2007C4.56737 37.2106 4.57025 37.2207 4.57438 37.2309C4.59138 37.2724 4.612 37.3111 4.63363 37.3489C6.0235 40.1689 8.45512 42.1592 11.2086 42.4351C13.4557 46.9041 17.0981 50.545 21.5651 52.7911C21.8404 55.5411 23.8259 57.9703 26.6399 59.3613C26.6811 59.3855 26.7236 59.4079 26.7691 59.4265C26.7811 59.4314 26.7934 59.435 26.8055 59.4393C28.3472 60.1708 30.1249 60.5957 32.0001 60.5957C33.8775 60.5957 35.6571 60.17 37.2002 59.4366C37.2105 59.4328 37.2207 59.4299 37.231 59.4258C37.2746 59.4079 37.3154 59.3866 37.355 59.3636C40.1719 57.9734 42.1595 55.543 42.4352 52.7914C46.9014 50.5456 50.546 46.9013 52.7916 42.435C55.5381 42.1599 57.9647 40.1793 59.3565 37.3708C59.3827 37.3268 59.4064 37.2801 59.4265 37.2311C59.4311 37.2194 59.4345 37.2074 59.4389 37.1954ZM26.6526 6.9875L29.2844 13.4233C29.4461 13.8188 29.8275 14.0583 30.2301 14.0583C30.3588 14.0583 30.4896 14.0338 30.6162 13.982C31.1384 13.7685 31.3885 13.1722 31.1751 12.6501L28.487 6.07662C29.5691 5.67562 30.7634 5.44688 32 5.44688C33.2368 5.44688 34.4309 5.67562 35.513 6.07662L32.8249 12.6501C32.6115 13.1722 32.8616 13.7685 33.3838 13.982C33.5104 14.0338 33.6412 14.0583 33.7699 14.0583C34.1722 14.0583 34.5538 13.8188 34.7156 13.4233L37.3475 6.98737C39.0269 8.0695 40.1868 9.62175 40.395 11.3155L36.8236 13.5302C36.5234 13.7165 36.3406 14.0449 36.3406 14.3982V16.53C34.9336 16.1353 33.4791 15.9358 31.9999 15.9358C30.5205 15.9358 29.0662 16.1353 27.6591 16.53V14.3982C27.6591 14.0449 27.4764 13.7166 27.1761 13.5302L23.6049 11.3156C23.8133 9.62175 24.9731 8.06975 26.6526 6.9875ZM6.9875 37.3474L13.4233 34.7156C13.9454 34.5021 14.1955 33.9059 13.9821 33.3838C13.7686 32.862 13.1728 32.6116 12.6503 32.8249L6.07675 35.513C5.67562 34.4309 5.44688 33.2366 5.44688 32C5.44688 30.7632 5.67562 29.5691 6.07662 28.487L12.6501 31.1751C12.7767 31.2269 12.9076 31.2514 13.0363 31.2514C13.4386 31.2514 13.8201 31.0119 13.982 30.6164C14.1954 30.0942 13.9453 29.4981 13.4231 29.2845L6.98737 26.6526C8.0695 24.9732 9.62188 23.8132 11.3155 23.605L13.5305 27.1765C13.7168 27.4768 14.0451 27.6595 14.3985 27.6595H16.5303C16.1355 29.0665 15.936 30.521 15.936 32.0003C15.936 33.4795 16.1355 34.9339 16.5303 36.341H14.3985C14.0451 36.341 13.7169 36.5238 13.5305 36.824L11.3159 40.3951C9.62188 40.1866 8.06975 39.0269 6.9875 37.3474ZM37.3474 57.0125L34.7156 50.5766C34.5021 50.0546 33.9064 49.8044 33.3838 50.0177C32.8616 50.2312 32.6115 50.8275 32.8249 51.3496L35.513 57.9231C34.4308 58.3243 33.2366 58.553 32 58.553C30.7632 58.553 29.5691 58.3242 28.487 57.9232L28.8649 56.9991C29.0783 56.477 28.8281 55.8808 28.306 55.6673C27.7839 55.4539 27.1877 55.7041 26.9741 56.2261L26.6526 57.0125C24.9731 55.9304 23.8132 54.3779 23.605 52.6842L27.1764 50.4695C27.4766 50.2833 27.6594 49.9549 27.6594 49.6015V47.4697C29.0664 47.8645 30.5209 48.064 32.0001 48.064C33.4794 48.064 34.9337 47.8645 36.3409 47.4697V49.6015C36.3409 49.9549 36.5236 50.2831 36.8239 50.4695L40.3952 52.6842C40.1866 54.378 39.0269 55.9303 37.3474 57.0125ZM41.5086 50.9714L38.3833 49.0331V46.0576C38.3833 45.7215 38.218 45.4071 37.9412 45.2165C37.6647 45.026 37.312 44.9834 36.9977 45.1035C35.4021 45.7126 33.7206 46.0213 32 46.0213C30.2794 46.0213 28.5979 45.7124 27.0023 45.1035C26.6881 44.9834 26.3354 45.026 26.0588 45.2165C25.782 45.407 25.6168 45.7215 25.6168 46.0576V49.0331L22.4918 50.971C18.4089 48.9205 15.0799 45.5934 13.0285 41.5086L14.9669 38.3833H17.9424C18.2785 38.3833 18.5929 38.218 18.7835 37.9412C18.9741 37.6645 19.0164 37.3117 18.8965 36.9977C18.2874 35.4021 17.9788 33.7206 17.9788 32C17.9788 30.2794 18.2876 28.5979 18.8965 27.0023C19.0164 26.6883 18.974 26.3355 18.7835 26.0588C18.593 25.782 18.2785 25.6168 17.9424 25.6168H14.9669L13.0286 22.4914C15.0787 18.4092 18.4094 15.0786 22.4915 13.0285L25.6168 14.9668V17.9424C25.6168 18.2785 25.782 18.5929 26.0588 18.7835C26.2316 18.9025 26.434 18.9636 26.6381 18.9636C26.7609 18.9636 26.8844 18.9414 27.0023 18.8965C28.5978 18.2872 30.2791 17.9786 32 17.9786C33.7206 17.9786 35.4021 18.2875 36.9977 18.8964C37.312 19.0165 37.6646 18.9739 37.9412 18.7834C38.218 18.5929 38.3833 18.2784 38.3833 17.9422V14.9668L41.5086 13.0285C45.5908 15.0789 48.9214 18.4094 50.9714 22.4914L49.0331 25.6168H46.0576C45.7215 25.6168 45.4071 25.782 45.2165 26.0588C45.0259 26.3355 44.9836 26.6883 45.1035 27.0023C45.7126 28.5979 46.0213 30.2794 46.0213 32C46.0213 33.7206 45.7124 35.4021 45.1035 36.9977C44.9836 37.3117 45.026 37.6644 45.2165 37.9412C45.407 38.2181 45.7215 38.3833 46.0576 38.3833H49.0331L50.9714 41.5085C48.9214 45.5906 45.5908 48.9214 41.5086 50.9714ZM52.6842 40.3949L50.4692 36.8235C50.283 36.5233 49.9546 36.3405 49.6012 36.3405H47.4695C47.8643 34.9335 48.0638 33.479 48.0638 31.9998C48.0638 30.5205 47.8643 29.0661 47.4695 27.659H49.6012C49.9546 27.659 50.2829 27.4763 50.4692 27.176L52.6842 23.6049C54.3779 23.8131 55.9302 24.973 57.0124 26.6525L56.2257 26.9741C55.7036 27.1876 55.4535 27.7839 55.6669 28.306C55.8286 28.7015 56.21 28.941 56.6126 28.941C56.7413 28.941 56.8722 28.9165 56.9987 28.8647L57.9232 28.4867C58.3244 29.569 58.5531 30.7631 58.5531 31.9998C58.5531 33.2365 58.3244 34.4306 57.9234 35.5127L51.3498 32.8246C50.8275 32.6112 50.2315 32.8615 50.0179 33.3835C49.8045 33.9056 50.0546 34.5019 50.5768 34.7154L57.0127 37.3471C55.9302 39.0269 54.3781 40.1866 52.6842 40.3949ZM38.1958 35.1732V29.0991C38.1958 27.5412 36.9281 26.2736 35.3703 26.2736C33.8124 26.2736 32.5448 27.5411 32.5448 29.099V35.1731C32.5448 36.731 33.8124 37.9986 35.3703 37.9986C36.9281 37.9988 38.1958 36.7312 38.1958 35.1732ZM34.5872 35.1732V29.0991C34.5872 28.6674 34.9384 28.3161 35.3703 28.3161C35.802 28.3161 36.1533 28.6672 36.1533 29.0991V35.1732C36.1533 35.605 35.8021 35.9562 35.3703 35.9562C34.9384 35.9562 34.5872 35.6051 34.5872 35.1732ZM29.4128 35.1732V32.2704C29.4128 31.8386 29.0616 31.4874 28.6297 31.4874C28.198 31.4874 27.8468 31.8385 27.8468 32.2704C27.8468 32.8345 27.3896 33.2916 26.8255 33.2916C26.2614 33.2916 25.8043 32.8345 25.8043 32.2704V27.2949C25.8043 26.7307 26.2614 26.2736 26.8255 26.2736H29.5319C30.096 26.2736 30.5531 26.7307 30.5531 27.2949C30.5531 27.859 30.096 28.3161 29.5319 28.3161H27.8468V29.5553C28.0955 29.4834 28.3582 29.4449 28.6297 29.4449C30.1876 29.4449 31.4552 30.7125 31.4552 32.2704V35.1732C31.4552 36.7311 30.1876 37.9987 28.6297 37.9987C27.0719 37.9987 25.8043 36.7311 25.8043 35.1732C25.8043 34.6091 26.2614 34.152 26.8255 34.152C27.3896 34.152 27.8468 34.6091 27.8468 35.1732C27.8468 35.605 28.1979 35.9562 28.6297 35.9562C29.0616 35.9562 29.4128 35.6051 29.4128 35.1732ZM32 43.9789C25.3948 43.9789 20.0211 38.6051 20.0211 32C20.0211 29.5842 20.7413 27.2532 22.1033 25.2591C22.4216 24.7935 23.057 24.6737 23.5226 24.9919C23.9884 25.3101 24.108 25.9456 23.7899 26.4115C22.6605 28.0646 22.0635 29.9971 22.0635 32C22.0635 37.4788 26.5209 41.9364 31.9999 41.9364C37.4789 41.9364 41.9362 37.479 41.9362 32C41.9362 26.521 37.479 22.0636 32 22.0636C29.9971 22.0636 28.0645 22.6606 26.4112 23.7899C25.9452 24.108 25.31 23.9882 24.9919 23.5226C24.6737 23.0567 24.7935 22.4214 25.2591 22.1033C27.2534 20.7411 29.5842 20.0212 32 20.0212C38.6052 20.0212 43.9789 25.3949 43.9789 32.0001C43.9789 38.6054 38.6052 43.9789 32 43.9789Z" fill="#282A28"/>
<circle cx="32" cy="32" r="9" fill="#03AED2"/>
<path d="M32.086 40.22C30.4287 40.22 28.9913 39.9047 27.774 39.274C26.5567 38.6433 25.6253 37.734 24.98 36.546C24.3347 35.358 24.012 33.95 24.012 32.322C24.012 30.694 24.3347 29.286 24.98 28.098C25.6253 26.8953 26.5493 25.9787 27.752 25.348C28.9693 24.7027 30.3993 24.38 32.042 24.38C33.406 24.38 34.6673 24.6147 35.826 25.084C36.9847 25.5533 37.8427 26.1767 38.4 26.954C38.576 27.1887 38.664 27.4307 38.664 27.68C38.664 28.0467 38.466 28.3767 38.07 28.67C37.894 28.802 37.674 28.868 37.41 28.868C37.19 28.868 36.97 28.824 36.75 28.736C36.53 28.6333 36.3467 28.494 36.2 28.318C35.7013 27.746 35.122 27.3353 34.462 27.086C33.802 26.822 32.9953 26.69 32.042 26.69C30.4433 26.69 29.1967 27.1887 28.302 28.186C27.4073 29.1687 26.96 30.5473 26.96 32.322C26.96 34.082 27.4073 35.4533 28.302 36.436C29.2113 37.4187 30.4727 37.91 32.086 37.91C33.4207 37.91 34.462 37.6533 35.21 37.14C35.9727 36.6267 36.354 35.9153 36.354 35.006V34.522C36.354 34.214 36.2807 34.0013 36.134 33.884C36.002 33.7667 35.7673 33.708 35.43 33.708H32.548C32.1373 33.708 31.8147 33.6127 31.58 33.422C31.3453 33.2167 31.228 32.938 31.228 32.586C31.228 32.2193 31.338 31.9407 31.558 31.75C31.7927 31.5447 32.1227 31.442 32.548 31.442H36.816C37.6667 31.442 38.29 31.6253 38.686 31.992C39.082 32.344 39.28 32.9087 39.28 33.686V34.544C39.28 35.6587 38.9793 36.6487 38.378 37.514C37.7767 38.3647 36.926 39.032 35.826 39.516C34.7407 39.9853 33.494 40.22 32.086 40.22Z" fill="#282A28"/>
</g>
<defs>
<clipPath id="clip0_219_45">
<rect width="64" height="64" fill="white"/>
</clipPath>
</defs>
</svg>
