<svg width="64" height="64" viewBox="0 0 64 64" fill="none" xmlns="http://www.w3.org/2000/svg">
<path fill-rule="evenodd" clip-rule="evenodd" d="M32 5.5C17.374 5.5 5.5 17.374 5.5 32C5.5 46.626 17.374 58.5 32 58.5C46.626 58.5 58.5 46.626 58.5 32C58.5 17.374 46.626 5.5 32 5.5ZM32 9.5C44.418 9.5 54.5 19.582 54.5 32C54.5 44.418 44.418 54.5 32 54.5C19.582 54.5 9.5 44.418 9.5 32C9.5 19.582 19.582 9.5 32 9.5ZM30 21.488V19C30 17.896 30.896 17 32 17C33.104 17 34 17.896 34 19V21.624C34.352 21.684 34.694 21.756 35.02 21.842C36.094 22.122 36.99 22.496 37.708 22.966C38.426 23.436 38.972 23.958 39.348 24.528C39.722 25.1 39.91 25.66 39.91 26.206C39.91 26.804 39.71 27.292 39.31 27.674C38.908 28.054 38.34 28.246 37.604 28.246C37.07 28.246 36.616 28.092 36.24 27.788C35.866 27.484 35.436 27.026 34.954 26.416C34.672 26.052 34.354 25.74 34 25.48V29.922C35.544 30.308 36.812 30.766 37.804 31.294C38.826 31.842 39.602 32.486 40.128 33.23C40.656 33.972 40.92 34.82 40.92 35.774C40.92 37.21 40.57 38.438 39.872 39.462C39.172 40.484 38.14 41.26 36.774 41.786C35.956 42.102 35.03 42.324 34 42.45V45C34 46.104 33.104 47 32 47C30.896 47 30 46.104 30 45V42.482C28.878 42.354 27.874 42.1 26.988 41.72C25.654 41.148 24.668 40.434 24.034 39.576C23.398 38.718 23.08 37.858 23.08 36.994C23.08 36.422 23.284 35.932 23.69 35.526C24.096 35.12 24.612 34.916 25.234 34.916C25.78 34.916 26.2 35.05 26.492 35.316C26.784 35.584 27.064 35.958 27.33 36.44C27.864 37.368 28.502 38.06 29.246 38.518C29.472 38.658 29.724 38.776 30 38.872V33.346C28.828 33.014 27.834 32.67 27.016 32.314C25.892 31.826 24.992 31.18 24.32 30.38C23.646 29.58 23.31 28.594 23.31 27.426C23.31 26.384 23.62 25.4 24.244 24.472C24.866 23.544 25.784 22.804 26.998 22.252C27.868 21.854 28.87 21.6 30 21.488ZM34 34.516C34.318 34.648 34.588 34.78 34.812 34.916C35.504 35.336 35.85 36.002 35.85 36.918C35.85 37.514 35.516 38.044 34.85 38.508C34.594 38.686 34.31 38.83 34 38.94V34.516ZM30 24.916V28.826C29.52 28.64 29.12 28.424 28.798 28.178C28.34 27.83 28.112 27.382 28.112 26.836C28.112 26.238 28.424 25.74 29.046 25.338C29.33 25.156 29.648 25.014 30 24.916ZM15.846 26.768C16.188 25.948 15.974 26.374 16.56 25.348C17.106 24.39 16.772 23.168 15.812 22.62C14.854 22.074 13.63 22.408 13.084 23.368C12.318 24.712 12.602 24.154 12.154 25.232C11.73 26.25 12.212 27.422 13.232 27.846C14.25 28.27 15.422 27.788 15.846 26.768ZM19.112 21.782C20.002 20.596 21.014 19.628 22 18.834C22.55 18.39 23.092 18.002 23.6 17.662C24.518 17.046 24.762 15.804 24.148 14.886C23.534 13.97 22.29 13.724 21.374 14.338C19.64 15.502 17.604 17.128 15.914 19.38C15.25 20.264 15.43 21.518 16.312 22.18C17.194 22.844 18.45 22.664 19.112 21.782Z" fill="#282A28"/>
</svg>
