<svg width="64" height="64" viewBox="0 0 64 64" fill="none" xmlns="http://www.w3.org/2000/svg">
<g clip-path="url(#clip0_217_27)">
<rect x="28" y="16" width="31" height="40" fill="#68D2E8"/>
<rect x="18" y="3" width="31" height="18" rx="7" fill="#68D2E8"/>
<mask id="mask0_217_27" style="mask-type:luminance" maskUnits="userSpaceOnUse" x="0" y="-1" width="64" height="64">
<path d="M63.9979 -1H0V63H63.9979V-1Z" fill="white"/>
</mask>
<g mask="url(#mask0_217_27)">
<path d="M25.2579 23.0988C24.0637 22.8797 22.8641 22.6827 21.6753 22.4357C20.2827 22.1601 18.9672 21.5969 17.8181 20.7843C16.8184 20.0696 16.109 19.1529 16.1155 17.9377C16.127 15.8088 16.2478 13.68 16.3594 11.5527C16.4017 10.7481 16.5754 9.95214 16.637 9.14837C16.693 8.22045 16.947 7.31392 17.3828 6.48643C17.8186 5.65895 18.4268 4.92857 19.1688 4.34153C20.0233 3.64543 20.9271 2.92959 21.9339 2.50039C26.0982 0.724708 30.3276 -0.82653 35.0069 -0.721378C38.1339 -0.650905 41.2657 -0.724958 44.3499 -0.112624C46.7351 0.360984 48.904 1.2954 50.7077 2.92042C52.2765 4.3332 53.2091 6.03729 53.2709 8.16588C53.3166 9.72404 53.4576 11.2795 53.5542 12.8052C55.1996 13.1772 56.7818 13.4433 58.2988 13.9105C59.3171 14.2278 60.2762 14.7026 61.1387 15.3163C62.4438 16.2502 62.8768 17.6761 62.9408 19.2057C63.0587 22.0493 63.1405 24.8948 63.2863 27.7371C63.4786 31.4799 63.7876 35.2183 63.9199 38.9628C64.0705 43.2306 64.1266 47.5031 64.1257 51.773C64.1257 53.0365 63.7685 54.2979 63.6192 55.564C63.4765 56.7772 62.6583 57.3593 61.5991 57.763C59.194 58.6939 56.6857 59.3499 54.1251 59.7194C47.9692 60.5538 41.7184 60.474 35.5873 59.4818C34.2483 59.2734 32.9439 58.8545 31.5107 58.5045C31.301 58.671 30.9966 58.901 30.7052 59.1458C27.6713 61.691 24.1225 62.963 20.1476 63.2157C15.604 63.5045 11.2909 62.7245 7.27996 60.594C3.75913 58.7235 1.35112 55.9656 0.510832 52.0951C-1.50934 42.7918 4.62369 33.3006 14.1005 30.96C14.8388 30.7777 15.5092 30.3391 16.2469 30.1521C17.1743 29.9173 18.1589 29.6208 19.0822 29.7081C20.4246 29.8366 21.7385 30.2753 23.0595 30.6007C23.6107 30.7364 24.1488 30.9209 24.7835 31.1101C24.942 28.4208 25.0957 25.8345 25.2579 23.0988ZM18.7378 60.0276C19.429 59.9494 20.5594 59.9033 21.653 59.6843C26.7313 58.6668 30.2217 55.9576 31.4067 50.8633C31.866 48.9162 31.9157 46.899 31.5524 44.9325C30.7584 40.59 28.475 37.2975 24.3887 35.2888C23.0866 34.6487 21.7251 34.1155 20.3638 33.6C18.8895 33.0517 17.2684 33.0012 15.7611 33.4565C10.3281 34.9772 6.44996 38.1454 4.69715 43.4762C4.23078 44.8247 3.92302 46.2201 3.7797 47.6354C3.35584 52.7216 5.25064 56.0328 9.80341 58.1333C12.4934 59.3744 15.3412 59.9354 18.7378 60.0271V60.0276ZM32.3698 12.7794C35.8155 12.4484 39.0855 12.2472 42.3144 11.7789C44.0945 11.5082 45.8282 10.9994 47.4649 10.2668C49.4218 9.39837 49.632 7.8058 48.2482 6.19961C47.9884 5.85408 47.6651 5.5583 47.2943 5.32732C46.1407 4.72777 45.0036 3.99557 43.7616 3.67984C39.2618 2.52874 34.5731 2.24835 29.9624 2.85466C27.4277 3.18538 24.9925 3.85852 22.7967 5.18833C21.582 5.92442 20.4726 6.7845 19.8612 8.08962C19.3007 9.28542 19.5755 10.262 20.7774 10.8591C21.6787 11.3314 22.6539 11.6565 23.6638 11.8213C26.608 12.2195 29.5716 12.4822 32.3698 12.7794ZM50.0454 13.3109C48.2351 13.83 46.6285 14.3916 44.9744 14.7454C40.6587 15.6682 36.2688 15.8113 31.8686 15.6934C27.5211 15.5769 23.1903 15.3364 19.1585 13.4184V18.3689C20.3701 19.1852 21.2898 19.5935 23.12 19.7975C25.9779 20.116 28.8442 20.4128 31.7155 20.5607C36.7929 20.8292 41.8818 20.288 46.779 18.9585C47.9832 18.6319 49.1851 18.2438 50.0463 17.6145L50.0454 13.3109ZM60.2584 32.1877C57.9424 33.1954 55.9546 34.222 53.8549 34.9422C48.7295 36.7005 43.4056 36.7096 38.0719 36.2571C35.9454 36.0765 33.8356 35.7111 31.7597 35.4353C32.3735 36.3925 33.077 37.3583 33.6354 38.3976C34.1938 39.4369 34.6114 40.5564 35.1377 41.7477C35.6956 41.8293 36.3131 41.9666 36.9372 42.003C42.6986 42.3484 48.4793 41.7726 54.049 40.2995C55.8702 39.819 57.603 39.0163 59.3646 38.3321C59.8093 38.159 60.2627 37.9307 60.2606 37.3333C60.254 35.6387 60.2584 33.9445 60.2584 32.1877ZM28.6254 31.6226C29.6862 31.948 30.7775 32.3861 31.9134 32.6136C37.1425 33.6566 42.5167 33.8239 47.8039 33.1086C51.7517 32.5867 55.2992 31.036 58.5173 28.7776C58.9268 28.4901 59.4599 28.0839 59.5225 27.6711C59.6709 26.7021 59.57 25.6972 59.57 24.6861C59.4398 24.7062 59.3136 24.7467 59.197 24.8063C56.5429 26.7279 53.492 27.6453 50.2804 28.1888C45.5497 28.9549 40.7364 29.1194 35.9623 28.6785C33.5777 28.4777 31.2082 28.1145 28.971 27.2061C28.6854 27.0907 28.3919 26.9986 27.9621 26.8457C28.1897 28.476 28.3896 29.9196 28.6254 31.6226ZM33.4029 56.193C38.0713 57.7888 54.7835 57.8256 60.892 53.89C60.7584 52.5939 60.6209 51.2636 60.4799 49.8995C52.183 52.9452 43.725 53.2859 35.1355 52.4046C34.5419 53.7011 33.9724 54.9468 33.4029 56.1926V56.193ZM60.2645 41.9616C52.4375 44.7177 44.044 45.6076 35.7895 44.5563V49.2422C35.9235 49.3309 35.9623 49.3787 36.0043 49.3812C36.8329 49.4315 37.6612 49.4789 38.4892 49.5224C44.0101 49.8145 49.545 49.3098 54.9141 48.0243C56.7901 47.5956 58.5921 46.9041 60.2636 45.9711L60.2645 41.9616ZM53.7448 16.3956C53.653 16.5324 53.5446 16.6215 53.5568 16.6875C53.8858 18.3578 52.8758 19.3336 51.666 20.2405C50.0737 21.4336 48.2077 21.9849 46.303 22.4088C40.7635 23.6056 35.0644 23.9468 29.4154 23.4196C29.0081 23.3849 28.5948 23.4152 28.1846 23.4152C28.4724 23.8576 28.899 24.1985 29.4014 24.3876C30.3559 24.7455 31.341 25.0221 32.345 25.2141C38.2887 26.148 44.3565 26.0357 50.2595 24.8826C52.4689 24.4644 54.6404 23.8074 56.4167 22.39C57.1952 21.7551 57.8563 20.9949 58.3698 20.1426C58.905 19.2622 58.6248 18.4965 57.7614 17.9325C56.5538 17.1415 55.183 16.6169 53.7448 16.3956Z" fill="#282A28"/>
</g>
<path d="M14.3698 26.5H27.6302C31.0869 26.5065 34.3736 27.7532 36.7768 29.9275C39.175 32.0973 40.4929 35.0043 40.5 38.0016C40.5 38.0022 40.5 38.0027 40.5 38.0033V49.9967C40.5 49.9973 40.5 49.9978 40.5 49.9984C40.4929 52.9957 39.175 55.9027 36.7768 58.0725C34.3738 60.2467 31.0874 61.4933 27.6309 61.5C27.6302 61.5 27.6296 61.5 27.6289 61.5H14.3711C14.3704 61.5 14.3698 61.5 14.3691 61.5C10.9126 61.4933 7.62622 60.2467 5.22317 58.0725C2.825 55.9027 1.50708 52.9957 1.5 49.9983V38.0017C1.50708 35.0043 2.825 32.0973 5.22317 29.9275C7.62639 27.7532 10.9131 26.5065 14.3698 26.5ZM24.7105 52V47.5H29.8421C30.7804 47.5 31.7068 47.1641 32.4116 46.5265C33.1213 45.8844 33.5526 44.9795 33.5526 44C33.5526 43.0205 33.1213 42.1156 32.4116 41.4735C31.7068 40.8359 30.7804 40.5 29.8421 40.5H24.7105V36C24.7105 35.0205 24.2791 34.1156 23.5694 33.4735C22.8647 32.8359 21.9383 32.5 21 32.5C20.0617 32.5 19.1353 32.8359 18.4306 33.4735C17.7209 34.1156 17.2895 35.0205 17.2895 36V40.5H12.1579C11.2196 40.5 10.2932 40.8359 9.58845 41.4735C8.87875 42.1156 8.44737 43.0205 8.44737 44C8.44737 44.9795 8.87875 45.8844 9.58845 46.5265C10.2932 47.1641 11.2196 47.5 12.1579 47.5H17.2895V52C17.2895 52.9795 17.7208 53.8844 18.4306 54.5265C19.1353 55.1641 20.0617 55.5 21 55.5C21.9383 55.5 22.8647 55.1641 23.5694 54.5265C24.2791 53.8844 24.7105 52.9795 24.7105 52Z" fill="#90D26D" stroke="#282A28" stroke-width="3"/>
</g>
<defs>
<clipPath id="clip0_217_27">
<rect width="64" height="64" fill="white"/>
</clipPath>
</defs>
</svg>
