<svg width="64" height="64" viewBox="0 0 64 64" fill="none" xmlns="http://www.w3.org/2000/svg">
<g clip-path="url(#clip0_219_126)">
<path d="M35.543 51.3554C40.653 60.1597 50.233 64.1411 56.9404 60.2481C63.6478 56.3551 64.9427 46.0619 59.8327 37.2576C54.7226 28.4532 45.1427 24.4718 38.4352 28.3648C31.7278 32.2578 30.4329 42.551 35.543 51.3554Z" fill="#FCDC2A"/>
<path d="M56.9937 60.1098C59.5961 58.541 61.4978 56.0338 62.3071 53.1048C61.338 55.2321 59.7393 57.0105 57.7269 58.1998C51.0195 62.0928 41.4397 58.1114 36.3296 49.3071C33.2114 43.9346 32.4823 38.0104 33.9084 33.3215C31.5886 38.2327 32.0372 45.0847 35.5964 51.217C40.7065 60.0215 50.2864 64.0029 56.9937 60.1098Z" fill="white"/>
<path d="M55.6399 61.7728C55.9885 61.5706 56.3344 61.3474 56.6686 61.1084C56.6871 61.0911 56.7044 61.0726 56.7205 61.053C56.8102 60.9704 56.875 60.8643 56.9076 60.7468C56.9402 60.626 56.9333 60.4979 56.8878 60.3813C56.8829 60.3572 56.8766 60.3333 56.8688 60.31C56.861 60.2941 56.8466 60.2846 56.8376 60.2696C56.8287 60.2547 56.827 60.2374 56.8166 60.2229C56.7995 60.2047 56.7812 60.1876 56.7619 60.1717C56.6785 60.0809 56.5711 60.0156 56.452 59.9834C56.4132 59.9743 56.3736 59.969 56.3337 59.9675C56.2513 59.9603 56.1684 59.9725 56.0916 60.0031C56.0668 60.008 56.0422 60.0145 56.0182 60.0225C49.6085 63.1919 40.8551 59.2446 36.0908 51.0371C31.1649 42.5483 32.3598 32.6241 38.7528 28.9141C38.7892 28.8884 38.8226 28.8588 38.8525 28.8258C38.8628 28.8168 38.8726 28.8088 38.8823 28.7993C38.9281 28.752 38.9659 28.6977 38.9945 28.6384C39.0022 28.623 39.0102 28.6087 39.0167 28.5925C39.0687 28.4672 39.0753 28.3276 39.0353 28.198C39.0326 28.1742 39.0285 28.1505 39.023 28.1272C39.0171 28.1118 39.0045 28.1019 38.9976 28.0872C38.991 28.074 38.9912 28.0593 38.9837 28.0463C38.9702 28.0293 38.9558 28.013 38.9405 27.9976C38.9103 27.9528 38.8743 27.9122 38.8334 27.8768C38.8167 27.8638 38.7994 27.8517 38.7814 27.8405C38.7293 27.8044 38.672 27.7766 38.6114 27.7579C38.5992 27.7544 38.5873 27.7525 38.5748 27.7496C38.5072 27.7332 38.4372 27.7285 38.368 27.7357C38.3569 27.7368 38.3465 27.7395 38.3355 27.7412C38.2903 27.7439 38.2455 27.7516 38.2021 27.7642C37.5806 28.0047 36.979 28.2936 36.4027 28.6282C33.7419 30.2055 31.7078 32.6538 30.645 35.5587C28.6906 40.6501 29.2298 47.1819 32.6005 52.9897C37.9041 62.1278 48.2402 66.0675 55.6399 61.7728Z" fill="#FCDC2A"/>
<path d="M56.3009 60.5911C55.9874 60.8158 55.6613 61.0266 55.3225 61.2235C48.2137 65.3495 38.287 61.5205 33.1508 52.6711C28.0146 43.8217 29.6138 33.3031 36.7227 29.1771C37.2701 28.8592 37.8416 28.5847 38.4319 28.3561" stroke="#282A28" stroke-width="2" stroke-miterlimit="10"/>
<path d="M35.543 51.3554C40.653 60.1597 50.233 64.1411 56.9404 60.2481C63.6478 56.3551 64.9427 46.0619 59.8327 37.2576C54.7226 28.4532 45.1427 24.4718 38.4352 28.3648C31.7278 32.2578 30.4329 42.551 35.543 51.3554Z" stroke="#282A28" stroke-width="2" stroke-miterlimit="10"/>
<path d="M35.5431 51.3551L33.1509 52.671" stroke="#282A28" stroke-width="2" stroke-miterlimit="10"/>
<path d="M34.1096 48.4539L31.6059 49.4626" stroke="#282A28" stroke-width="2" stroke-miterlimit="10"/>
<path d="M33.1378 45.5929L30.6277 46.2464" stroke="#282A28" stroke-width="2" stroke-miterlimit="10"/>
<path d="M32.464 42.6042L30.0556 42.9533" stroke="#282A28" stroke-width="2" stroke-miterlimit="10"/>
<path d="M37.1542 53.7841L34.9295 55.3028" stroke="#282A28" stroke-width="2" stroke-miterlimit="10"/>
<path d="M52.3251 32.4816C61.0389 27.2187 64.8525 17.5707 60.8431 10.9323C56.8336 4.29382 46.5194 3.17875 37.8056 8.44168C29.0918 13.7046 25.2781 23.3526 29.2876 29.991C33.2971 36.6295 43.6113 37.7445 52.3251 32.4816Z" fill="#FCDC2A"/>
<path d="M60.7039 10.8814C59.0899 8.30679 56.5499 6.44914 53.6073 5.69111C55.7511 6.6229 57.5572 8.19038 58.7814 10.1817C62.7909 16.8201 58.9773 26.4679 50.2634 31.731C44.9462 34.9424 39.0356 35.7748 34.3225 34.4308C39.2735 36.6644 46.1167 36.0963 52.1858 32.4307C60.8998 27.1677 64.7135 17.5197 60.7039 10.8814Z" fill="white"/>
<path d="M62.3902 12.206C62.1819 11.861 61.9528 11.519 61.708 11.189C61.6903 11.1708 61.6715 11.1538 61.6516 11.1381C61.5675 11.0498 61.4603 10.9869 61.3423 10.9563C61.2209 10.9258 61.0929 10.935 60.9772 10.9825C60.9531 10.9878 60.9294 10.9946 60.9061 11.0028C60.8904 11.0109 60.8812 11.0254 60.8664 11.0346C60.8515 11.0438 60.8343 11.0458 60.82 11.0565C60.8021 11.0739 60.7853 11.0925 60.7698 11.1121C60.6804 11.1971 60.617 11.3056 60.5869 11.4252C60.5785 11.4642 60.5738 11.5039 60.573 11.5438C60.5673 11.6262 60.581 11.7089 60.6129 11.7852C60.6183 11.8099 60.6252 11.8344 60.6336 11.8583C63.9143 18.2116 60.1205 27.0327 51.9973 31.9394C43.5958 37.0127 33.6522 35.9913 29.8312 29.6639C29.8049 29.628 29.7747 29.5951 29.7412 29.5658C29.732 29.5557 29.7238 29.546 29.7142 29.5364C29.6661 29.4915 29.6111 29.4546 29.5513 29.4271C29.5358 29.4197 29.5214 29.4119 29.5051 29.4057C29.3789 29.3559 29.2392 29.3517 29.1103 29.394C29.0865 29.3971 29.0629 29.4016 29.0397 29.4075C29.0244 29.4137 29.0147 29.4264 29.0002 29.4337C28.987 29.4404 28.9724 29.4405 28.9595 29.4482C28.9428 29.462 28.9267 29.4767 28.9116 29.4923C28.8673 29.5232 28.8273 29.5599 28.7927 29.6014C28.78 29.6183 28.7682 29.6359 28.7573 29.6541C28.7221 29.7068 28.6953 29.7646 28.6777 29.8255C28.6744 29.8378 28.6727 29.8497 28.67 29.8622C28.6548 29.9301 28.6513 30.0002 28.6597 30.0692C28.661 30.0803 28.6639 30.0907 28.6658 30.1017C28.6693 30.1468 28.6777 30.1914 28.6911 30.2347C28.9424 30.8518 29.2417 31.4483 29.5864 32.0186C31.2098 34.6516 33.6933 36.6426 36.6163 37.6546C41.741 39.5198 48.2624 38.8666 54.0105 35.3951C63.0546 29.9328 66.8134 19.5296 62.3902 12.206Z" fill="#FCDC2A"/>
<path d="M61.1972 11.5657C61.4274 11.8752 61.6438 12.1976 61.8466 12.5329C66.096 19.5687 62.4408 29.5606 53.6824 34.8505C44.9241 40.1403 34.3791 38.725 30.1297 31.6892C29.8023 31.1474 29.5179 30.5808 29.279 29.9945" stroke="#282A28" stroke-width="2" stroke-miterlimit="10"/>
<path d="M52.3251 32.4816C61.0389 27.2187 64.8525 17.5707 60.8431 10.9323C56.8336 4.29382 46.5194 3.17875 37.8056 8.44168C29.0918 13.7046 25.2781 23.3526 29.2876 29.991C33.2971 36.6295 43.6113 37.7445 52.3251 32.4816Z" stroke="#282A28" stroke-width="2" stroke-miterlimit="10"/>
<path d="M52.325 32.4815L53.6824 34.8504" stroke="#282A28" stroke-width="2" stroke-miterlimit="10"/>
<path d="M49.4491 33.9654L50.5014 36.4511" stroke="#282A28" stroke-width="2" stroke-miterlimit="10"/>
<path d="M46.6055 34.987L47.3027 37.4853" stroke="#282A28" stroke-width="2" stroke-miterlimit="10"/>
<path d="M43.629 35.7128L44.0201 38.1147" stroke="#282A28" stroke-width="2" stroke-miterlimit="10"/>
<path d="M54.7255 30.8283L56.2827 33.0262" stroke="#282A28" stroke-width="2" stroke-miterlimit="10"/>
<path d="M30.112 31.7313C39.8402 28.7328 45.8746 20.294 43.5902 12.8828C41.3058 5.47156 31.5677 1.89437 21.8395 4.89291C12.1113 7.89145 6.07696 16.3302 8.36134 23.7415C10.6457 31.1527 20.3838 34.7299 30.112 31.7313Z" fill="#FCDC2A"/>
<path d="M43.4674 12.7998C42.5242 9.91116 40.5091 7.49422 37.8372 6.04682C39.692 7.46956 41.0652 9.42741 41.7713 11.6558C44.0557 19.0669 38.0214 27.5056 28.2931 30.5042C22.357 32.3339 16.4205 31.7117 12.1726 29.2674C16.4361 32.6324 23.2135 33.7367 29.9891 31.6482C39.7175 28.6497 45.752 20.2109 43.4674 12.7998Z" fill="white"/>
<path d="M44.7832 14.493C44.6646 14.1078 44.525 13.7205 44.3673 13.3411C44.3545 13.3192 44.3404 13.2982 44.3249 13.2781C44.2646 13.1721 44.1759 13.0851 44.0687 13.0269C43.9583 12.968 43.832 12.9459 43.7081 12.964C43.6835 12.9633 43.6589 12.9641 43.6343 12.9665C43.6171 12.9705 43.6046 12.9824 43.588 12.9878C43.5714 12.9931 43.5542 12.9909 43.5377 12.9977C43.5162 13.0104 43.4954 13.0243 43.4756 13.0396C43.3683 13.1004 43.2805 13.1904 43.2224 13.2991C43.2048 13.3349 43.1907 13.3723 43.1802 13.4108C43.1547 13.4894 43.148 13.573 43.1606 13.6547C43.1597 13.68 43.1605 13.7054 43.1629 13.7306C44.8092 20.6889 38.994 28.3301 29.9251 31.126C20.5458 34.0161 11.1447 30.6194 8.96795 23.5556C8.95106 23.5144 8.92971 23.4751 8.90427 23.4386C8.89782 23.4266 8.89227 23.4152 8.88522 23.4036C8.84941 23.3484 8.80498 23.2993 8.75362 23.2581C8.74033 23.2471 8.72826 23.2361 8.71393 23.2261C8.60353 23.1472 8.46903 23.1095 8.3337 23.1193C8.30989 23.1165 8.28593 23.1152 8.26195 23.1153C8.24562 23.1176 8.23311 23.1276 8.21728 23.1311C8.20289 23.1345 8.18863 23.131 8.17431 23.1355C8.15469 23.1448 8.13559 23.1551 8.11711 23.1666C8.06665 23.1859 8.01899 23.2118 7.97538 23.2437C7.95895 23.2571 7.94323 23.2713 7.92831 23.2863C7.88142 23.3289 7.84138 23.3785 7.80959 23.4333C7.80339 23.4444 7.79884 23.4556 7.79325 23.4671C7.76208 23.5293 7.74174 23.5964 7.73311 23.6655C7.7317 23.6765 7.73201 23.6873 7.73124 23.6984C7.72365 23.743 7.72107 23.7884 7.72358 23.8336C7.81813 24.4932 7.96428 25.1444 8.16069 25.7811C9.09896 28.7286 11.027 31.2613 13.6183 32.9504C18.1396 36 24.6253 36.9439 31.0425 34.966C41.1394 31.854 47.3033 22.6691 44.7832 14.493Z" fill="#FCDC2A"/>
<path d="M43.7805 13.583C43.9289 13.9391 44.0609 14.3043 44.1766 14.6786C46.5977 22.5335 40.6338 31.3443 30.8558 34.3582C21.0779 37.3721 11.1886 33.4477 8.76747 25.5929C8.58089 24.988 8.44199 24.3694 8.35205 23.7428" stroke="#282A28" stroke-width="2" stroke-miterlimit="10"/>
<path d="M30.112 31.7313C39.8402 28.7328 45.8746 20.294 43.5902 12.8828C41.3058 5.47156 31.5677 1.89437 21.8395 4.89291C12.1113 7.89145 6.07696 16.3302 8.36134 23.7415C10.6457 31.1527 20.3838 34.7299 30.112 31.7313Z" stroke="#282A28" stroke-width="2" stroke-miterlimit="10"/>
<path d="M30.1118 31.7312L30.8558 34.3581" stroke="#282A28" stroke-width="2" stroke-miterlimit="10"/>
<path d="M26.9624 32.4753L27.3821 35.1418" stroke="#282A28" stroke-width="2" stroke-miterlimit="10"/>
<path d="M23.9562 32.7786L24.0283 35.3714" stroke="#282A28" stroke-width="2" stroke-miterlimit="10"/>
<path d="M20.8925 32.7628L20.6909 35.188" stroke="#282A28" stroke-width="2" stroke-miterlimit="10"/>
<path d="M32.8409 30.7079L33.8202 33.2172" stroke="#282A28" stroke-width="2" stroke-miterlimit="10"/>
<path d="M14.3698 26.5H27.6302C31.0869 26.5065 34.3736 27.7532 36.7768 29.9275C39.175 32.0973 40.4929 35.0043 40.5 38.0016C40.5 38.0022 40.5 38.0027 40.5 38.0033V49.9967C40.5 49.9973 40.5 49.9978 40.5 49.9984C40.4929 52.9957 39.175 55.9027 36.7768 58.0725C34.3738 60.2467 31.0874 61.4933 27.6309 61.5C27.6302 61.5 27.6296 61.5 27.6289 61.5H14.3711C14.3704 61.5 14.3698 61.5 14.3691 61.5C10.9126 61.4933 7.62622 60.2467 5.22317 58.0725C2.825 55.9027 1.50708 52.9957 1.5 49.9983V38.0017C1.50708 35.0043 2.825 32.0973 5.22317 29.9275C7.62639 27.7532 10.9131 26.5065 14.3698 26.5ZM24.7105 52V47.5H29.8421C30.7804 47.5 31.7068 47.1641 32.4116 46.5265C33.1213 45.8844 33.5526 44.9795 33.5526 44C33.5526 43.0205 33.1213 42.1156 32.4116 41.4735C31.7068 40.8359 30.7804 40.5 29.8421 40.5H24.7105V36C24.7105 35.0205 24.2791 34.1156 23.5694 33.4735C22.8647 32.8359 21.9383 32.5 21 32.5C20.0617 32.5 19.1353 32.8359 18.4306 33.4735C17.7209 34.1156 17.2895 35.0205 17.2895 36V40.5H12.1579C11.2196 40.5 10.2932 40.8359 9.58845 41.4735C8.87875 42.1156 8.44737 43.0205 8.44737 44C8.44737 44.9795 8.87875 45.8844 9.58845 46.5265C10.2932 47.1641 11.2196 47.5 12.1579 47.5H17.2895V52C17.2895 52.9795 17.7208 53.8844 18.4306 54.5265C19.1353 55.1641 20.0617 55.5 21 55.5C21.9383 55.5 22.8647 55.1641 23.5694 54.5265C24.2791 53.8844 24.7105 52.9795 24.7105 52Z" fill="#90D26D" stroke="#282A28" stroke-width="3"/>
</g>
<defs>
<clipPath id="clip0_219_126">
<rect width="64" height="64" fill="white"/>
</clipPath>
</defs>
</svg>
