<svg width="64" height="64" viewBox="0 0 64 64" fill="none" xmlns="http://www.w3.org/2000/svg">
<path d="M17.7863 43.2138V0C17.7863 0 32.18 14.8075 19.7346 33.9964V43.2133L17.7863 43.2138Z" fill="#9DA8B2"/>
<path d="M17.7871 30.3823V0C17.7871 0 17.949 0.168427 18.2251 0.489756C19.19 6.3386 21.1486 21.3065 17.7871 30.3823Z" fill="#A9B1B7"/>
<path d="M18.8177 63.9981C16.9748 63.9981 15.4807 62.5651 15.4807 60.798V43.6542C15.4807 41.8866 16.9748 40.454 18.8177 40.454C20.6606 40.454 22.1547 41.8871 22.1547 43.6542V60.798C22.1547 62.5655 20.6606 63.9981 18.8177 63.9981Z" fill="#C07646"/>
<path d="M18.8177 63.9981C16.9748 63.9981 15.4807 62.5651 15.4807 60.798V43.6542C15.4807 41.8866 16.9748 40.454 18.8177 40.454C20.6606 40.454 22.1547 41.8871 22.1547 43.6542V60.798C22.1547 62.5655 20.6606 63.9981 18.8177 63.9981Z" fill="#F9B741"/>
<path d="M22.1562 43.6528V60.7985C22.1562 62.567 20.6621 64 18.8182 64C17.4585 64 16.2857 63.2209 15.7662 62.0993C16.2288 62.3364 16.7586 62.4686 17.3202 62.4686C19.164 62.4686 20.6582 61.0356 20.6582 59.2671V42.1247C20.6582 41.6603 20.5556 41.22 20.3722 40.8239C20.669 40.973 20.9407 41.1659 21.1776 41.3931C21.7814 41.969 22.1562 42.7688 22.1562 43.6528Z" fill="#CC841B"/>
<path d="M29.5983 38.9707L0.00250958 6.388C0.00250958 6.388 -0.708748 26.6214 21.8168 33.2489L28.1292 40.1981L29.5983 38.9707Z" fill="#9DA8B2"/>
<path d="M20.6577 29.1271C19.9686 28.945 19.2156 28.6773 18.3955 28.3085C12.9723 25.8738 3.60737 13.2817 0.0923283 8.36395C-0.0219621 7.12521 0.00305086 6.3894 0.00305086 6.3894L20.6577 29.1271Z" fill="#A9B1B7"/>
<path d="M43.0551 55.2921C44.4448 54.131 44.5895 52.1094 43.3794 50.7765L31.6379 37.8505C30.4273 36.5176 28.3195 36.3788 26.9299 37.5395C25.5403 38.7006 25.3956 40.7222 26.6062 42.0546L38.3477 54.9806C39.5583 56.3139 41.666 56.4532 43.0551 55.2921Z" fill="#F9B741"/>
<path d="M43.0556 55.293C41.7415 56.3873 39.7917 56.3229 38.5591 55.1914C39.1771 55.11 39.7775 54.8593 40.2827 54.4358C41.6743 53.2771 41.8195 51.2545 40.6079 49.9231L28.8669 36.9952C28.7997 36.9208 28.7291 36.8493 28.655 36.7849C29.7361 36.639 30.8697 37.0017 31.6364 37.8486L43.3808 50.7766C44.589 52.1084 44.4438 54.131 43.0556 55.293Z" fill="#CC841B"/>
<path d="M20.5248 30.3833C20.5248 30.8354 20.1426 31.2019 19.6712 31.2019C19.1999 31.2019 18.8177 30.8354 18.8177 30.3833C18.8177 29.9311 19.1999 29.5646 19.6712 29.5646C20.1426 29.5646 20.5248 29.9311 20.5248 30.3833Z" fill="#585D60"/>
<path d="M40.3092 17.9227L38.1917 19.1851L49.1237 36.0541L51.2413 34.7917L40.3092 17.9227Z" fill="#585D60"/>
<path d="M41.6709 22.5552C43.2361 21.6222 43.7159 19.6486 42.7432 18.1474L33.3066 3.58734C32.3339 2.08608 30.2762 1.62596 28.7109 2.5589C27.1457 3.49183 26.666 5.46544 27.6387 6.9667L37.0752 21.5267C38.0484 23.0275 40.1056 23.4881 41.6709 22.5552Z" fill="#C07646"/>
<path d="M41.6709 22.5552C43.2361 21.6222 43.7159 19.6486 42.7432 18.1474L33.3066 3.58734C32.3339 2.08608 30.2762 1.62596 28.7109 2.5589C27.1457 3.49183 26.666 5.46544 27.6387 6.9667L37.0752 21.5267C38.0484 23.0275 40.1056 23.4881 41.6709 22.5552Z" fill="#F9B741"/>
<path d="M41.6714 22.5537C40.4456 23.2853 38.9162 23.1635 37.8458 22.3538C38.3933 22.3303 38.948 22.1708 39.4459 21.873C41.0107 20.9415 41.4909 18.9664 40.5162 17.4656L31.0816 2.90516C30.8697 2.58006 30.6117 2.30531 30.3149 2.08184C31.4838 2.02774 32.6424 2.56642 33.3066 3.58922L42.7407 18.1464C43.7164 19.6472 43.2361 21.6222 41.6714 22.5537Z" fill="#CC841B"/>
<path d="M60.2351 51.1925L60.2371 51.1953C60.2371 51.1953 60.2341 51.1972 60.2321 51.1944C41.0343 52.7281 30.8757 34.7633 36.9714 32.3291C43.0675 29.8954 47.3639 33.8675 47.3639 33.8675L49.6733 34.896L49.7307 32.4561C49.7307 32.4561 47.9182 27.0029 52.8916 22.837C57.8649 18.6714 70.1681 35.3575 60.2351 51.1925Z" fill="#9DA8B2"/>
<path d="M54.4562 41.0116C45.2782 41.7446 39.8222 34.4429 40.6507 31.5434C44.7259 31.4272 47.3639 33.8671 47.3639 33.8671L49.6732 34.8955L49.7306 32.4557C49.7306 32.4557 48.468 28.6529 50.9456 24.9743C53.9486 24.1218 59.6224 32.7737 54.4562 41.0116Z" fill="#A9B1B7"/>
<path d="M50.2864 35.3499C49.4329 35.859 48.3106 35.6078 47.7798 34.7892L44.047 29.0297L47.1387 27.1864L50.8716 32.9454C51.4018 33.7645 51.1404 34.8409 50.2864 35.3499Z" fill="#9099A0"/>
</svg>
