<svg id="icons" xmlns="http://www.w3.org/2000/svg" viewBox="0 0 48 48"><title>paint-roller</title><g id="paint-roller"><path d="M23,28.5h4a2,2,0,0,1,2,2v15a1,1,0,0,1-1,1H23a2,2,0,0,1-2-2v-14A2,2,0,0,1,23,28.5Z" fill="#6d7c8c"/><path d="M45,9.5H43a1,1,0,0,1,0-2h2a1,1,0,0,1,0,2Z" fill="#252b33"/><path d="M25,28.5a1,1,0,0,1-1-1v-4a1,1,0,0,0-1-1H5a3,3,0,0,1-3-3v-9a3,3,0,0,1,3-3H8a1,1,0,0,1,0,2H5a1,1,0,0,0-1,1v9a1,1,0,0,0,1,1H23a3,3,0,0,1,3,3v4A1,1,0,0,1,25,28.5Z" fill="#252b33"/><path d="M29,47.5H21a1,1,0,0,1-1-1v-15a4,4,0,0,1,4-4h2a4,4,0,0,1,4,4v15A1,1,0,0,1,29,47.5Zm-7-2h6v-14a2,2,0,0,0-2-2H24a2,2,0,0,0-2,2Z" fill="#252b33"/><rect x="7" y="1.5" width="36" height="14" rx="4" ry="4" fill="#fc3768"/><rect x="24" y="36.5" width="2" height="2" fill="#252b33"/><rect x="24" y="32.5" width="2" height="2" fill="#252b33"/><rect x="24" y="40.5" width="2" height="2" fill="#252b33"/></g></svg>