<svg width="64" height="64" viewBox="0 0 64 64" fill="none" xmlns="http://www.w3.org/2000/svg">
<g clip-path="url(#clip0_224_492)">
<path d="M41.262 23.7662C37.546 24.363 34.0499 21.8344 33.4531 18.1184C32.8563 14.4024 35.3849 10.9063 39.1009 10.3095C49.8848 8.57761 57.9245 24.494 57.9245 24.494C57.9245 24.494 49.465 22.4489 41.262 23.7662Z" fill="#4FC497"/>
<path d="M16.9799 23.2163C19.4116 23.6068 21.6995 21.9522 22.09 19.5204C22.4805 17.0887 20.8258 14.8008 18.3941 14.4104C11.3372 13.277 6.07599 23.6926 6.07599 23.6926C6.07599 23.6926 11.6118 22.3543 16.9799 23.2163Z" fill="#4FC497"/>
<path d="M58.8844 24.0089C58.7998 23.8412 56.7716 19.86 53.359 16.036C51.328 13.7601 49.2253 12.0162 47.1097 10.8525C44.3841 9.35345 41.6323 8.81324 38.9301 9.24728C36.8491 9.58139 35.023 10.706 33.7878 12.4138C32.9316 13.5977 32.4311 14.9637 32.3157 16.3837C30.714 16.8263 29.3072 17.4553 28.1789 18.2419C27.4459 18.753 26.8547 19.3207 26.416 19.923C25.6293 19.1649 24.5109 18.5304 23.1761 18.1104C22.8713 15.7398 21.0414 13.7462 18.5643 13.3483C10.8199 12.1043 5.3449 22.7538 5.11557 23.2077C4.92646 23.5819 4.97218 24.0321 5.2326 24.3608C5.43946 24.6218 5.75173 24.7684 6.07573 24.7684C6.15974 24.7684 6.24451 24.7585 6.32852 24.7383C6.38188 24.7255 11.7133 23.4604 16.8091 24.2785C18.2692 24.5132 19.7327 24.1649 20.9306 23.2986C21.951 22.5605 22.6731 21.5211 23.01 20.3273C24.6354 20.9478 25.5116 21.8912 25.5116 22.4911L25.5025 31.3181C25.5018 31.9122 25.983 32.3943 26.577 32.395C26.5774 32.395 26.5777 32.395 26.5782 32.395C27.1717 32.395 27.6532 31.914 27.6539 31.3205L27.663 22.4924C27.663 21.1851 29.3241 19.5445 32.4455 18.5843C32.835 20.5422 33.9308 22.2551 35.557 23.4314C37.2646 24.6664 39.3511 25.1632 41.4321 24.8284C49.3155 23.5626 57.5891 25.5201 57.6714 25.5397C57.7553 25.5599 57.8401 25.5698 57.9242 25.5698C58.2482 25.5698 58.5604 25.4232 58.7672 25.1622C59.0278 24.8334 59.0736 24.3834 58.8844 24.0089ZM19.6697 21.5552C18.9373 22.085 18.0429 22.2972 17.1502 22.1543C13.7813 21.6132 10.3914 21.8955 8.20841 22.2103C9.9093 19.6219 13.2994 15.4003 17.318 15.4003C17.6162 15.4003 17.9186 15.4236 18.2232 15.4724C19.4646 15.6719 20.4399 16.5272 20.8541 17.6273C19.6599 17.4784 18.4655 17.4434 17.2946 17.5264C16.702 17.5683 16.2556 18.0827 16.2975 18.6753C16.3395 19.268 16.8535 19.717 17.4465 19.6724C18.5868 19.5918 19.7545 19.6383 20.9212 19.8073C20.7072 20.5084 20.274 21.1181 19.6697 21.5552ZM41.0911 22.7041C39.5783 22.9471 38.06 22.5862 36.8179 21.6879C35.6151 20.818 34.8117 19.5442 34.5412 18.0899C34.613 18.0776 34.6837 18.0645 34.7565 18.0529C37.3861 17.6306 40.0103 17.614 42.5556 18.0034C43.1419 18.0934 43.6917 17.6902 43.7816 17.1029C43.8714 16.5155 43.4682 15.9666 42.881 15.8769C40.1587 15.4602 37.3576 15.4714 34.5528 15.9081C34.7123 15.112 35.041 14.3522 35.5311 13.6746C36.4294 12.4324 37.7577 11.6146 39.2713 11.3715C46.9334 10.142 53.3061 18.9125 55.8169 22.9826C52.6773 22.453 46.8626 21.7772 41.0911 22.7041Z" fill="#333333"/>
<path d="M49.5947 17.8273C48.4719 17.3374 47.3123 16.921 46.148 16.5894C45.5771 16.4271 44.9815 16.758 44.8188 17.3295C44.6562 17.9009 44.9875 18.496 45.5589 18.6586C46.6312 18.9639 47.6995 19.3476 48.7345 19.7993C48.8745 19.8603 49.0205 19.8893 49.1641 19.8893C49.5788 19.8893 49.9741 19.6479 50.1506 19.2435C50.388 18.6991 50.1393 18.0649 49.5947 17.8273Z" fill="#333333"/>
<path d="M26.5761 33.6864C26.5757 33.6864 26.5752 33.6864 26.5748 33.6864C25.9812 33.6864 25.4999 34.1672 25.4991 34.7608L25.4969 36.5404C25.4962 37.1344 25.9774 37.6166 26.5714 37.6174C26.5718 37.6174 26.5722 37.6174 26.5726 37.6174C27.1662 37.6174 27.6476 37.1366 27.6483 36.543L27.6505 34.7634C27.6512 34.1693 27.1702 33.6871 26.5761 33.6864Z" fill="#333333"/>
<path d="M22.9794 56.4476C21.8757 56.8615 20.5173 56.9782 19.2652 56.9782C13.6937 56.9782 9.18347 52.468 9.18347 46.8965C9.18347 46.5356 9.2047 46.1855 9.23649 45.8352L54.7632 45.8352C54.795 46.1854 54.8162 46.5357 54.8162 46.8965C54.8162 52.468 50.306 56.9782 44.7345 56.9782C43.4823 56.9782 42.124 56.8615 41.0203 56.4476C39.439 59.9602 36.0962 62.2843 31.9999 62.2843C27.9036 62.2843 24.5606 59.9601 22.9794 56.4476Z" fill="#A26234"/>
<path d="M19.1929 50.6108C20.4451 50.6108 21.8035 50.4941 22.9071 50.0802C24.4884 53.5929 27.8312 55.9169 31.9275 55.9169C36.0238 55.9169 39.3667 53.5929 40.9479 50.0802C42.0516 50.4941 43.41 50.6108 44.6621 50.6108C48.2833 50.6108 51.4471 48.6991 53.2245 45.8352L10.6303 45.8352C12.4079 48.6991 15.5716 50.6108 19.1929 50.6108Z" fill="#8C552B"/>
<path d="M47.9185 50.3468H50.041V48.7522H47.9185V50.3468Z" fill="white"/>
<path d="M45.7962 52.4697H47.9187V50.8751H45.7962V52.4697Z" fill="#282A28"/>
<path d="M40.4892 50.8775H42.6117V49.2829H40.4892V50.8775Z" fill="white"/>
<path d="M33.0607 58.3059H35.1831V56.7113H33.0607V58.3059Z" fill="white"/>
<path d="M30.9392 56.1842H33.0616V54.5895H30.9392V56.1842Z" fill="#282A28"/>
<path d="M33.0607 50.8775H35.1831V49.2829H33.0607V50.8775Z" fill="#282A28"/>
<path d="M27.7552 49.8163H29.8776V48.2216H27.7552V49.8163Z" fill="white"/>
<path d="M13.9592 50.8775H16.0817V49.2829H13.9592V50.8775Z" fill="white"/>
<path d="M16.0814 53.0004H18.2039V51.4058H16.0814V53.0004Z" fill="#282A28"/>
<path d="M20.326 50.8775H22.4485V49.2829H20.326V50.8775Z" fill="#282A28"/>
<path d="M8.38977 46.6327C8.38753 46.7217 8.38631 46.8095 8.38631 46.8965C8.38631 52.8951 13.2666 57.7754 19.2653 57.7754C20.5638 57.7754 21.6514 57.6569 22.5651 57.4143C24.2997 60.6937 27.5115 62.7876 31.2026 63.0523L31.2026 81.3867H32.7973V63.0525C36.4883 62.7879 39.7001 60.6939 41.4346 57.4145C42.3485 57.657 43.4361 57.7756 44.7346 57.7756C50.7332 57.7756 55.6135 52.8953 55.6135 46.8967C55.6135 46.8096 55.6123 46.7218 55.6101 46.6329H58V45.0382L6 45.0382V46.6329H8.38977V46.6327ZM54.019 46.8965C54.019 52.0159 49.8541 56.1808 44.7347 56.1808C43.3567 56.1808 42.2344 56.0303 41.3948 55.7345C39.9415 54.6838 37.8352 52.8601 37.5319 51.9505L36.0191 52.4547C36.5021 53.9037 38.8477 55.8148 40.0118 56.6946C38.416 59.7077 35.4654 61.4869 32.0001 61.4869C28.5388 61.4869 25.5908 59.712 23.9937 56.7052C25.0042 55.959 27.0716 54.2914 27.9376 52.5591L26.5114 51.8461C25.6443 53.5801 23.0901 55.402 22.6145 55.7311C21.7741 56.0292 20.6485 56.1809 19.2652 56.1809C14.1458 56.1809 9.98085 52.016 9.98085 46.8966C9.98085 46.8103 9.98257 46.7221 9.98521 46.6328L54.0147 46.6328C54.0173 46.7221 54.019 46.8102 54.019 46.8965Z" fill="#282A28"/>
</g>
<defs>
<clipPath id="clip0_224_492">
<rect width="64" height="64" fill="white"/>
</clipPath>
</defs>
</svg>
