<?xml version="1.0" encoding="utf-8"?>
<!-- Generator: Adobe Illustrator 26.0.2, SVG Export Plug-In . SVG Version: 6.00 Build 0)  -->
<svg version="1.1" id="flat" xmlns="http://www.w3.org/2000/svg" xmlns:xlink="http://www.w3.org/1999/xlink" x="0px" y="0px"
	 viewBox="0 0 512 512" enable-background="new 0 0 512 512" xml:space="preserve">
<path fill="#C38A34" d="M332,384c-41.974,0-76,25.072-76,56h152C408,409.072,373.974,384,332,384z"/>
<path fill="#C38A34" d="M140,432c-41.974,0-76,25.072-76,56h152C216,457.072,181.974,432,140,432z"/>
<rect x="298.521" y="126.786" transform="matrix(0.8934 0.4493 -0.4493 0.8934 123.8797 -119.8604)" fill="#E85656" width="32" height="148.669"/>
<path fill="#508EF2" d="M176.899,474.801L176.899,474.801L176.899,474.801c-42.634-42.829-53.079-108.134-25.93-162.123
	l24.622-48.965c4.962-9.868,16.985-13.845,26.853-8.883l135.798,68.286c9.868,4.962,13.845,16.985,8.883,26.853l-24.622,48.965
	C295.354,452.924,236.704,483.484,176.899,474.801z"/>
<path fill="#315693" d="M234.403,360.446L234.403,360.446c-11.842-5.955-16.614-20.382-10.66-32.224l39.534-78.62l42.883,21.564
	l-39.534,78.62C260.672,361.628,246.245,366.4,234.403,360.446z"/>
<path fill="#315693" d="M326.232,35.019l-19.324,38.428c-4.768,9.481-4.481,20.717,0.763,29.943l20.113,35.385l28.589,14.376
	l40.399-4.956c10.533-1.292,19.724-7.763,24.491-17.244l19.324-38.428c4.962-9.868,0.985-21.891-8.883-26.853l-78.62-39.534
	C343.217,21.174,331.194,25.151,326.232,35.019z M383.298,112.965l-39.31-19.767c-4.934-2.481-6.923-8.492-4.442-13.427
	l5.391-10.721c2.481-4.934,8.492-6.923,13.427-4.442l39.31,19.767c4.934,2.481,6.923,8.492,4.442,13.427l-5.391,10.721
	C394.243,113.457,388.232,115.446,383.298,112.965z"/>
<path fill="#F0AA40" d="M264,424c-57.438,0-104,28.654-104,64h208C368,452.654,321.438,424,264,424z"/>
<path fill="#FFB544" d="M372,432c-41.974,0-76,25.072-76,56h152C448,457.072,413.974,432,372,432z"/>
</svg>
