<?xml version="1.0" encoding="UTF-8"?>
<!DOCTYPE svg PUBLIC "-//W3C//DTD SVG 1.1//EN" "http://www.w3.org/Graphics/SVG/1.1/DTD/svg11.dtd">
<!-- Creator: CorelDRAW -->
<svg xmlns="http://www.w3.org/2000/svg" xml:space="preserve" width="1.70666in" height="1.70666in" version="1.1" style="shape-rendering:geometricPrecision; text-rendering:geometricPrecision; image-rendering:optimizeQuality; fill-rule:evenodd; clip-rule:evenodd"
viewBox="0 0 1707 1707"
 xmlns:xlink="http://www.w3.org/1999/xlink">
 <defs>
  <style type="text/css">
   <![CDATA[
    .fil4 {fill:#000002}
    .fil7 {fill:#689F38}
    .fil6 {fill:#8BC34A}
    .fil2 {fill:#A2590D}
    .fil3 {fill:#C47220}
    .fil5 {fill:#D9A13F}
    .fil1 {fill:#DB8638}
    .fil0 {fill:#F5DF87}
   ]]>
  </style>
 </defs>
 <g id="Layer_x0020_1">
  <metadata id="CorelCorpID_0Corel-Layer"/>
  <g id="_397175416">
   <path class="fil0" d="M1493 1572c-1,0 -3,0 -5,-1 -8,-2 -15,-8 -17,-16l-1236 0c-2,8 -8,14 -17,16 -1,1 -3,1 -5,1 -10,0 -19,-7 -22,-18 -169,-722 61,-1080 71,-1095 7,-11 21,-14 31,-7 8,5 11,14 10,23l1101 0c-2,-9 2,-18 10,-23 10,-7 24,-4 31,7 10,14 239,373 71,1095 -3,11 -12,18 -23,18z"/>
   <path class="fil1" d="M1312 359c-6,0 -924,2 -933,-6 -9,-9 -9,-23 0,-32 200,-208 335,-321 474,-321 139,0 274,113 475,321 9,9 8,23 -1,32 -4,4 -10,6 -15,6z"/>
   <path class="fil2" d="M738 179c-13,0 -23,-10 -23,-23 0,-12 10,-23 22,-23l1 0c12,0 22,11 22,23 0,13 -10,23 -22,23z"/>
   <path class="fil3" d="M877 116c-13,0 -23,-11 -23,-23 0,-13 10,-23 22,-23l1 0c12,0 23,10 23,23 0,12 -11,23 -23,23z"/>
   <path class="fil3" d="M830 168c-13,0 -23,-10 -23,-23 0,-12 10,-23 22,-23l1 0c12,0 22,11 22,23 0,13 -10,23 -22,23z"/>
   <path class="fil2" d="M933 196c-12,0 -23,-11 -23,-23 0,-13 10,-23 23,-23l0 0c13,0 23,10 23,23 0,12 -10,23 -23,23z"/>
   <path class="fil2" d="M1032 217c-13,0 -23,-10 -23,-23 0,-13 10,-23 22,-23l1 0c12,0 23,10 23,23 0,13 -11,23 -23,23z"/>
   <path class="fil3" d="M960 138c-13,0 -23,-11 -23,-23 0,-13 10,-23 22,-23l1 0c12,0 23,10 23,23 0,12 -11,23 -23,23z"/>
   <path class="fil3" d="M1095 279c-12,0 -23,-10 -23,-23 0,-12 10,-22 23,-22l0 0c13,0 23,10 23,22 0,13 -10,23 -23,23z"/>
   <path class="fil3" d="M1009 300c-12,0 -23,-10 -23,-23 0,-12 10,-22 23,-22l0 0c13,0 23,10 23,22 0,13 -10,23 -23,23z"/>
   <path class="fil3" d="M901 274c-12,0 -23,-10 -23,-23 0,-12 10,-22 23,-22l0 0c13,0 23,10 23,22 0,13 -10,23 -23,23z"/>
   <path class="fil4" d="M822 260c-12,0 -23,-10 -23,-22 0,-13 10,-23 23,-23l0 0c13,0 23,10 23,23 0,12 -10,22 -23,22z"/>
   <path class="fil2" d="M822 258c-12,0 -23,-10 -23,-22 0,-13 10,-23 23,-23l0 0c13,0 23,10 23,23 0,12 -10,22 -23,22z"/>
   <path class="fil3" d="M744 255c-13,0 -23,-11 -23,-23 0,-13 10,-23 22,-23l1 0c12,0 23,10 23,23 0,12 -11,23 -23,23z"/>
   <path class="fil3" d="M661 217c-13,0 -23,-10 -23,-23 0,-13 10,-23 22,-23l1 0c12,0 23,10 23,23 0,13 -11,23 -23,23z"/>
   <path class="fil2" d="M647 298c-13,0 -23,-11 -23,-23 0,-13 10,-23 23,-23l0 0c13,0 23,10 23,23 0,12 -10,23 -23,23z"/>
   <path class="fil3" d="M564 294c-12,0 -22,-10 -22,-23 0,-12 9,-22 22,-22l0 0c13,0 23,10 23,22 0,13 -10,23 -23,23z"/>
   <path class="fil5" d="M1564 1707l-1422 0c-12,0 -22,-11 -22,-23l0 -135c0,-12 10,-23 22,-23l1422 0c13,0 23,11 23,23l0 135c0,12 -10,23 -23,23z"/>
   <path class="fil5" d="M1426 494l-1145 0c-50,0 -90,-41 -90,-90 0,-50 40,-90 90,-90l1145 0c50,0 90,40 90,90 0,49 -40,90 -90,90z"/>
   <g>
    <path class="fil6" d="M1114 1271c-160,70 -353,40 -484,-91 -131,-131 -161,-324 -91,-484 160,-70 354,-40 484,91 131,131 162,324 91,484z"/>
    <path class="fil7" d="M684 867c-8,-7 -8,-19 0,-26 7,-8 19,-8 27,0l488 488c7,7 7,19 0,26 -8,8 -20,8 -27,0l-488 -488z"/>
    <path class="fil7" d="M707 1061c-10,-1 -18,-10 -18,-20 1,-10 10,-18 20,-18l186 9c11,1 19,10 18,20 0,10 -9,18 -20,18l-186 -9z"/>
    <path class="fil7" d="M793 793c-1,-11 7,-20 18,-20 10,-1 19,7 20,18l9 186c0,10 -8,19 -18,20 -10,0 -19,-8 -20,-18l-9 -186z"/>
   </g>
  </g>
 </g>
</svg>
